<svg version="1.1" xmlns="http://www.w3.org/2000/svg" xmlns:xlink="http://www.w3.org/1999/xlink" width="651.000000pt" height="590.000000pt" viewBox="0,0,256,232"><g fill="#a858f9" fill-rule="nonzero" stroke="none" stroke-width="1" stroke-linecap="butt" stroke-linejoin="miter" stroke-miterlimit="10" stroke-dasharray="" stroke-dashoffset="0" font-family="none" font-weight="none" font-size="none" text-anchor="none" style="mix-blend-mode: normal"><g transform="translate(-3.70857,-2.24463) scale(0.39324,0.39324)"><g transform="translate(0,590) scale(0.1,-0.1)"><path d="M3470,5639c-93,-24 -224,-86 -305,-143c-140,-100 -276,-274 -342,-436c-83,-206 -104,-486 -52,-689c63,-246 245,-422 453,-438c287,-22 458,182 662,789c77,230 98,336 99,493c0,117 -3,139 -29,220c-26,77 -37,97 -80,140c-36,36 -67,56 -105,68c-72,23 -204,22 -301,-4z"></path><path d="M4890,5259c-76,-30 -190,-146 -247,-252c-205,-382 -336,-947 -278,-1196c55,-230 264,-373 482,-327c161,33 358,176 470,341c120,177 172,337 180,556c7,173 -10,289 -63,448c-70,211 -178,364 -299,422c-70,33 -171,37 -245,8z"></path><path d="M2085,5063c-94,-38 -233,-156 -390,-331c-268,-298 -346,-460 -346,-712c0,-295 86,-494 242,-565c56,-25 70,-27 154,-23c82,3 101,8 166,40c78,39 181,132 226,204c166,268 249,625 223,961c-18,225 -39,325 -82,386c-40,56 -114,72 -193,40z"></path><path d="M3294,3716c-222,-53 -406,-148 -658,-340c-175,-133 -295,-190 -510,-246c-164,-42 -300,-53 -553,-47c-209,5 -332,17 -546,53c-53,10 -100,15 -103,12c-3,-3 -20,-49 -39,-102c-161,-448 -166,-965 -14,-1420c88,-263 124,-289 314,-231c136,41 242,122 265,203c16,54 50,354 50,440c0,41 4,72 10,72c6,0 10,-12 10,-27c0,-47 38,-214 61,-272c27,-68 73,-137 100,-151c48,-26 259,121 330,231c50,77 76,153 95,279c16,110 16,310 0,356c-7,20 -2,22 97,38c158,24 343,30 502,16c77,-6 148,-16 159,-22c11,-6 51,-36 90,-68c159,-130 269,-157 526,-133c207,19 210,18 225,-35c18,-61 58,-108 122,-144c30,-17 59,-41 65,-53c13,-29 -3,-87 -41,-147c-44,-70 -114,-101 -293,-133c-79,-14 -172,-32 -208,-40c-63,-14 -61,-14 120,-10c107,2 221,10 270,19c47,9 86,16 88,16c11,0 -4,-45 -28,-83c-40,-63 -117,-111 -229,-142c-50,-14 -133,-36 -183,-50c-215,-59 -408,-182 -540,-345c-122,-151 -218,-453 -220,-694c-2,-164 27,-260 99,-328c57,-55 93,-63 258,-61c776,12 1474,423 1869,1102l37,63l-73,77c-111,116 -193,248 -236,381c-36,108 -41,179 -26,360c42,511 39,763 -11,930c-104,349 -327,540 -780,667c-136,38 -333,42 -471,9z"></path><path d="M5567,3265c-53,-18 -107,-57 -169,-123c-65,-68 -111,-135 -208,-302c-190,-328 -281,-568 -283,-745c0,-131 84,-335 173,-416c106,-97 216,-93 414,15c186,102 293,188 355,284c90,142 114,404 62,698c-25,143 -76,342 -107,418c-59,145 -141,204 -237,171z"></path><path d="M2730,2305l-95,-96l45,16c31,11 60,14 94,9c27,-3 95,-3 152,1l104,7l-38,54c-48,67 -96,104 -137,104c-25,0 -46,-16 -125,-95z"></path><path d="M3780,2085c0,-8 5,-15 10,-15c6,0 10,7 10,15c0,8 -4,15 -10,15c-5,0 -10,-7 -10,-15z"></path><path d="M3650,2025c0,-9 5,-15 11,-13c6,2 11,8 11,13c0,5 -5,11 -11,13c-6,2 -11,-4 -11,-13z"></path><path d="M3740,1985c0,-8 5,-15 10,-15c6,0 10,7 10,15c0,8 -4,15 -10,15c-5,0 -10,-7 -10,-15z"></path><path d="M1585,1076c-106,-34 -187,-95 -201,-152c-33,-131 147,-333 415,-469c62,-31 78,-35 98,-26c68,31 53,153 -33,263c-58,74 -70,106 -79,203c-15,168 -74,221 -200,181z"></path></g></g></g></svg>