<?xml version="1.0" standalone="no"?>
<!DOCTYPE svg PUBLIC "-//W3C//DTD SVG 20010904//EN"
 "http://www.w3.org/TR/2001/REC-SVG-20010904/DTD/svg10.dtd">
<svg version="1.0" xmlns="http://www.w3.org/2000/svg"
 width="651.000000pt" height="590.000000pt" viewBox="0 0 651.000000 590.000000"
 preserveAspectRatio="xMidYMid meet">

<g transform="translate(0.000000,590.000000) scale(0.100000,-0.100000)"
fill="#000000" stroke="none">
<path d="M3470 5639 c-93 -24 -224 -86 -305 -143 -140 -100 -276 -274 -342
-436 -83 -206 -104 -486 -52 -689 63 -246 245 -422 453 -438 287 -22 458 182
662 789 77 230 98 336 99 493 0 117 -3 139 -29 220 -26 77 -37 97 -80 140 -36
36 -67 56 -105 68 -72 23 -204 22 -301 -4z"/>
<path d="M4890 5259 c-76 -30 -190 -146 -247 -252 -205 -382 -336 -947 -278
-1196 55 -230 264 -373 482 -327 161 33 358 176 470 341 120 177 172 337 180
556 7 173 -10 289 -63 448 -70 211 -178 364 -299 422 -70 33 -171 37 -245 8z"/>
<path d="M2085 5063 c-94 -38 -233 -156 -390 -331 -268 -298 -346 -460 -346
-712 0 -295 86 -494 242 -565 56 -25 70 -27 154 -23 82 3 101 8 166 40 78 39
181 132 226 204 166 268 249 625 223 961 -18 225 -39 325 -82 386 -40 56 -114
72 -193 40z"/>
<path d="M3294 3716 c-222 -53 -406 -148 -658 -340 -175 -133 -295 -190 -510
-246 -164 -42 -300 -53 -553 -47 -209 5 -332 17 -546 53 -53 10 -100 15 -103
12 -3 -3 -20 -49 -39 -102 -161 -448 -166 -965 -14 -1420 88 -263 124 -289
314 -231 136 41 242 122 265 203 16 54 50 354 50 440 0 41 4 72 10 72 6 0 10
-12 10 -27 0 -47 38 -214 61 -272 27 -68 73 -137 100 -151 48 -26 259 121 330
231 50 77 76 153 95 279 16 110 16 310 0 356 -7 20 -2 22 97 38 158 24 343 30
502 16 77 -6 148 -16 159 -22 11 -6 51 -36 90 -68 159 -130 269 -157 526 -133
207 19 210 18 225 -35 18 -61 58 -108 122 -144 30 -17 59 -41 65 -53 13 -29
-3 -87 -41 -147 -44 -70 -114 -101 -293 -133 -79 -14 -172 -32 -208 -40 -63
-14 -61 -14 120 -10 107 2 221 10 270 19 47 9 86 16 88 16 11 0 -4 -45 -28
-83 -40 -63 -117 -111 -229 -142 -50 -14 -133 -36 -183 -50 -215 -59 -408
-182 -540 -345 -122 -151 -218 -453 -220 -694 -2 -164 27 -260 99 -328 57 -55
93 -63 258 -61 776 12 1474 423 1869 1102 l37 63 -73 77 c-111 116 -193 248
-236 381 -36 108 -41 179 -26 360 42 511 39 763 -11 930 -104 349 -327 540
-780 667 -136 38 -333 42 -471 9z"/>
<path d="M5567 3265 c-53 -18 -107 -57 -169 -123 -65 -68 -111 -135 -208 -302
-190 -328 -281 -568 -283 -745 0 -131 84 -335 173 -416 106 -97 216 -93 414
15 186 102 293 188 355 284 90 142 114 404 62 698 -25 143 -76 342 -107 418
-59 145 -141 204 -237 171z"/>
<path d="M2730 2305 l-95 -96 45 16 c31 11 60 14 94 9 27 -3 95 -3 152 1 l104
7 -38 54 c-48 67 -96 104 -137 104 -25 0 -46 -16 -125 -95z"/>
<path d="M3780 2085 c0 -8 5 -15 10 -15 6 0 10 7 10 15 0 8 -4 15 -10 15 -5 0
-10 -7 -10 -15z"/>
<path d="M3650 2025 c0 -9 5 -15 11 -13 6 2 11 8 11 13 0 5 -5 11 -11 13 -6 2
-11 -4 -11 -13z"/>
<path d="M3740 1985 c0 -8 5 -15 10 -15 6 0 10 7 10 15 0 8 -4 15 -10 15 -5 0
-10 -7 -10 -15z"/>
<path d="M1585 1076 c-106 -34 -187 -95 -201 -152 -33 -131 147 -333 415 -469
62 -31 78 -35 98 -26 68 31 53 153 -33 263 -58 74 -70 106 -79 203 -15 168
-74 221 -200 181z"/>
</g>
</svg>
