<svg width="640" height="480" xmlns="http://www.w3.org/2000/svg">
 <!-- Created with Method Draw - http://github.com/duopixel/Method-Draw/ -->

 <g>
  <title transform="translate(-26,-14) translate(42,10) translate(8,0) translate(-40,3) ">Layer 1</title>
  <g stroke="null" id="svg_342">
   <g stroke="null" transform="matrix(0.8023998702320316,0,0,0.7703998717635916,-2210.4997089779717,-1572.6247891800888) " id="svg_167">
    <path stroke="null" id="svg_171" fill="#E1F4EA" d="m3038.238878,2468.934243c-37.868,-24.782 -65.725,-64.832 -74.473,-109.235c-19.97,-101.372 65.159,-184.665 158.222,-206.338c31.06,-7.234 64.217,-6.291 93.297,7.737c76.499,36.905 101.051,146.964 75.043,221.91c-12.465,35.921 -36.811,67.598 -68.092,89.168c-34.854,24.034 -73.732,30.753 -115.281,23.551c-24.387,-4.226 -47.987,-13.227 -68.716,-26.793z"/>
    <g stroke="null" id="svg_172">
     <rect stroke="null" id="svg_173" fill="#677F74" height="153.824" width="90.243" y="2354.292243" x="3241.386878"/>
     <rect stroke="null" id="svg_174" fill="#788E84" height="153.824" width="28.543" transform="matrix(-1,-1.224647e-16,1.224647e-16,-1,914.3846,651.5438) " y="-1856.572243" x="-2445.787878"/>
     <path stroke="null" id="svg_175" fill="#677F74" d="m3327.516878,2387.985243l-82.018,0l0,-30.059l82.018,0l0,30.059zm-81.014,-1.004l80.009,0l0,-28.051l-80.009,0l0,28.051z"/>
     <path stroke="null" id="svg_176" fill="#677F74" d="m3327.516878,2422.168243l-82.018,0l0,-30.06l82.018,0l0,30.06zm-81.014,-1.004l80.009,0l0,-28.052l-80.009,0l0,28.052z"/>
     <path stroke="null" id="svg_177" fill="#677F74" d="m3327.516878,2456.351243l-82.018,0l0,-30.059l82.018,0l0,30.059zm-81.014,-1.004l80.009,0l0,-28.051l-80.009,0l0,28.051z"/>
     <path stroke="null" id="svg_178" fill="#677F74" d="m3327.516878,2490.534243l-82.018,0l0,-30.06l82.018,0l0,30.06zm-81.014,-1.004l80.009,0l0,-28.052l-80.009,0l0,28.052z"/>
     <path stroke="null" id="svg_179" fill="#677F74" d="m3286.507878,2376.619243c-2.021,0 -3.664,-1.643 -3.664,-3.663c0,-2.02 1.643,-3.664 3.664,-3.664c2.02,0 3.664,1.644 3.664,3.664c0,2.019 -1.644,3.663 -3.664,3.663zm0,-6.324c-1.467,0 -2.66,1.193 -2.66,2.66c0,1.466 1.193,2.659 2.66,2.659c1.466,0 2.66,-1.194 2.66,-2.659c0,-1.467 -1.194,-2.66 -2.66,-2.66z"/>
     <path stroke="null" id="svg_180" fill="#677F74" d="m3286.507878,2410.802243c-2.021,0 -3.664,-1.643 -3.664,-3.664c0,-2.02 1.643,-3.664 3.664,-3.664c2.02,0 3.664,1.643 3.664,3.664c0,2.021 -1.644,3.664 -3.664,3.664zm0,-6.323c-1.467,0 -2.66,1.193 -2.66,2.659c0,1.467 1.193,2.66 2.66,2.66c1.466,0 2.66,-1.194 2.66,-2.66c0,-1.466 -1.194,-2.659 -2.66,-2.659z"/>
     <path stroke="null" id="svg_181" fill="#677F74" d="m3286.507878,2444.985243c-2.021,0 -3.664,-1.643 -3.664,-3.663c0,-2.021 1.643,-3.665 3.664,-3.665c2.02,0 3.664,1.644 3.664,3.665c0,2.019 -1.644,3.663 -3.664,3.663zm0,-6.324c-1.467,0 -2.66,1.193 -2.66,2.66c0,1.466 1.193,2.659 2.66,2.659c1.466,0 2.66,-1.193 2.66,-2.659c0,-1.467 -1.194,-2.66 -2.66,-2.66z"/>
     <path stroke="null" id="svg_182" fill="#677F74" d="m3286.507878,2479.168243c-2.021,0 -3.664,-1.643 -3.664,-3.664c0,-2.02 1.643,-3.664 3.664,-3.664c2.02,0 3.664,1.644 3.664,3.664c0,2.021 -1.644,3.664 -3.664,3.664zm0,-6.324c-1.467,0 -2.66,1.193 -2.66,2.659c0,1.467 1.193,2.66 2.66,2.66c1.466,0 2.66,-1.193 2.66,-2.66c0,-1.465 -1.194,-2.659 -2.66,-2.659z"/>
     <rect stroke="null" id="svg_183" fill="#677F74" height="6.794" width="94.602" y="2349.668243" x="3238.053878"/>
     <rect stroke="null" id="svg_184" fill="#788E84" height="6.794" width="29.568" y="2349.668243" x="3332.654878"/>
     <rect stroke="null" id="svg_185" fill="#788E84" height="16.27" width="6.495" y="2508.116243" x="3246.940878"/>
     <rect stroke="null" id="svg_186" fill="#788E84" height="16.27" width="6.495" y="2508.116243" x="3318.212878"/>
     <rect stroke="null" id="svg_187" fill="#677F74" height="16.27" width="6.495" y="2508.116243" x="3347.951878"/>
     <rect stroke="null" id="svg_188" fill="#677F74" height="16.27" width="6.495" y="2508.116243" x="3299.668878"/>
     <g stroke="null" id="svg_189">
      <path stroke="null" id="svg_190" fill="#788E84" d="m3313.708878,2315.876243c-1.088,-4.831 -3.563,-9.54 -7.67,-12.307c-1.671,-1.126 -3.627,-1.914 -5.642,-1.904c-2.015,0.01 -4.08,0.905 -5.207,2.576c-1.219,1.807 -1.178,4.258 -0.323,6.264c0.854,2.006 2.417,3.628 4.099,5.015c1.682,1.387 3.515,2.589 5.142,4.04c1.627,1.452 3.069,3.21 3.683,5.302c0.453,1.542 0.442,3.323 1.423,4.666c0.759,1.04 2.586,2.114 3.915,1.592c2.358,-0.925 1.501,-6.528 1.425,-8.36c-0.097,-2.313 -0.336,-4.624 -0.845,-6.884z"/>
      <path stroke="null" id="svg_191" fill="#677F74" d="m3314.310878,2316.101243c0.314,-2.49 0.865,-5.013 2.206,-7.135c1.341,-2.122 3.598,-3.794 6.106,-3.88c0.741,-0.025 1.499,0.09 2.154,0.437c0.734,0.388 1.299,1.047 1.692,1.778c0.678,1.261 0.874,2.744 0.734,4.169c-0.14,1.425 -0.6,2.801 -1.169,4.115c-0.981,2.263 -2.29,4.37 -3.317,6.613c-1.026,2.243 -1.775,4.697 -1.529,7.151c0.031,0.307 -5.947,0.933 -6.576,-0.495c-0.449,-1.018 -0.403,-2.457 -0.494,-3.547c-0.12,-1.436 -0.17,-2.877 -0.149,-4.318c0.024,-1.634 0.138,-3.266 0.342,-4.888z"/>
      <path stroke="null" id="svg_192" fill="#788E84" d="m3313.355878,2328.194243c-1.949,-8.031 -4.328,-16.894 -11.701,-21.669c-0.673,-0.436 -1.297,0.639 -0.627,1.073c7.068,4.577 9.267,13.25 11.13,20.926c0.189,0.777 1.387,0.448 1.198,-0.33z"/>
      <path stroke="null" id="svg_193" fill="#788E84" d="m3321.001878,2309.507243c-3.168,6.934 -4.899,14.443 -5.058,22.066c-0.017,0.8 1.226,0.8 1.243,0c0.155,-7.393 1.814,-14.712 4.888,-21.439c0.33,-0.722 -0.741,-1.354 -1.073,-0.627z"/>
      <path stroke="null" id="svg_194" fill="#AC335F" d="m3318.153878,2349.668243l-7.395,0c-2.646,0 -4.79,-2.145 -4.79,-4.79l0,-17.014l16.975,0l0,17.014c0,2.645 -2.144,4.79 -4.79,4.79z"/>
     </g>
    </g>
    <g stroke="null" id="svg_195">
     <path stroke="null" id="svg_196" fill="#EDBB95" d="m3201.315878,2316.715243c0,0 -7.364,37.594 -8.989,40.438c-1.582,2.769 -24.915,33.342 -24.915,33.342l9.276,5.627c0,0 26.781,-23.278 29.88,-28.289c4.027,-6.512 10.57,-28.746 10.57,-28.746l-15.822,-22.372z"/>
     <path stroke="null" id="svg_197" fill="#BE3868" d="m3215.859878,2349.008243c-13.078,0.793 -21.301,-7.133 -21.301,-7.133c1.486,-5.35 7.208,-26.626 7.208,-26.626l14.093,33.759z"/>
     <path stroke="null" id="svg_198" fill="#491635" d="m3197.603878,2256.382243c0.157,0.529 0.289,1.063 0.342,1.62c0.319,3.381 1.561,6.944 0.673,10.33c-0.169,0.644 -0.421,1.265 -0.758,1.839c-1.694,2.88 -5.598,4.628 -5.558,8.002c0.031,2.581 2.51,4.498 2.883,7.05c0.322,2.201 -1.027,4.333 -2.701,5.722c-1.674,1.39 -3.687,2.266 -5.452,3.528c-1.766,1.262 -3.361,3.106 -3.499,5.327c-0.155,2.495 1.645,4.783 3.838,5.814c2.193,1.031 4.697,1.04 7.097,0.842c2.4,-0.198 4.813,-0.585 7.202,-0.279c6.458,0.825 12.179,6.591 18.57,5.324c3.626,-0.719 6.468,-3.59 8.886,-6.487c2.418,-2.897 4.765,-6.056 8.084,-7.735c1.76,-0.89 3.697,-1.302 5.594,-1.788c0.81,-0.208 1.722,-0.64 2.54,-0.675c0.792,-0.034 1.676,0.259 2.484,0.288c3.135,0.115 6.587,-0.742 8.515,-3.408c1.758,-2.432 1.778,-5.815 0.655,-8.597c-1.123,-2.782 -3.239,-5.049 -5.518,-7c-2.96,-2.535 -6.434,-4.874 -7.773,-8.534c-0.869,-2.375 -0.711,-4.957 -1.286,-7.396c-0.567,-2.405 -1.826,-4.608 -3.585,-6.337c-1.211,-1.19 -2.552,-2.256 -3.629,-3.568c-1.21,-1.474 -2.049,-3.21 -3.051,-4.833c-1.001,-1.623 -2.232,-3.192 -3.935,-4.051c-2.09,-1.054 -4.518,-0.867 -6.751,-0.473c-1.064,0.188 -2.05,0.63 -3.135,0.824c-1.241,0.222 -2.498,0.354 -3.758,0.394c-3.268,0.105 -6.612,-0.396 -9.765,0.468c-2.947,0.808 -5.558,2.857 -6.928,5.589c-0.76,1.516 -1.118,3.229 -1.05,4.922c0.045,1.17 0.455,2.214 0.769,3.278z"/>
     <g stroke="null" id="svg_199">
      <rect stroke="null" id="svg_200" fill="#C18E7B" height="6.341" width="61.313" y="2493.033243" x="3204.382878"/>
      <path stroke="null" id="svg_201" fill="#D7A997" d="m3268.157878,2440.681243l-66.238,0c-3.706,0 -6.71,3.004 -6.71,6.71c0,3.706 3.004,6.71 6.71,6.71l66.238,0c3.706,0 6.71,-3.004 6.71,-6.71c0,-3.705 -3.004,-6.71 -6.71,-6.71z"/>
      <path stroke="null" id="svg_202" fill="#D7A997" d="m3216.147878,2453.006243l-0.217,1.094l-1.141,5.712l-12.596,63.237c-0.256,1.288 -1.389,2.212 -2.701,2.212l-11.23,0c-1.839,0 -3.159,-1.77 -2.639,-3.539l18.393,-61.91l1.7,-5.712l0.326,-1.094l10.105,0z"/>
      <path stroke="null" id="svg_203" fill="#D7A997" d="m3281.813878,2525.261243l-11.23,0c-1.312,0 -2.437,-0.924 -2.693,-2.212l-12.604,-63.237l-1.141,-5.712l-0.217,-1.094l10.105,0l0.326,1.094l1.7,5.712l18.393,61.91c0.52,1.77 -0.8,3.539 -2.639,3.539z"/>
      <polygon stroke="null" id="svg_204" fill="#F2D0C3" points="3205.717010498047,2454.101219177246 3215.930877685547,2454.101219177246 3214.790008544922,2459.813377380371 3204.018035888672,2459.813377380371 "/>
      <polygon stroke="null" id="svg_205" fill="#F2D0C3" points="3266.059051513672,2459.813377380371 3255.287078857422,2459.813377380371 3254.145965576172,2454.101219177246 3264.358856201172,2454.101219177246 "/>
     </g>
     <path stroke="null" id="svg_206" fill="#EDBB95" d="m3158.346878,2512.545243c0,0 3.525,4.769 1.682,12.717l-38.535,0c0,0 -0.961,-5.829 5.207,-6.888c6.169,-1.06 17.017,-7.57 17.017,-7.57l14.629,1.741z"/>
     <path stroke="null" id="svg_207" fill="#EDBB95" d="m3120.168878,2512.545243c0,0 3.525,4.769 1.683,12.717l-38.535,0c0,0 -0.961,-5.829 5.208,-6.888c6.169,-1.06 17.017,-7.57 17.017,-7.57l14.627,1.741z"/>
     <path stroke="null" id="svg_208" fill="#491635" d="m3201.259878,2394.767243c0,0 -55.792,11.261 -62.568,18.9c-10.878,12.263 -34.096,96.639 -34.096,96.639s9.809,5.747 18.329,3.235c0,0 31.972,-72.017 40.688,-75.743c5.373,-2.297 93.72,-43.03 93.72,-43.03l-56.073,0l0,-0.001z"/>
     <path stroke="null" id="svg_209" fill="#491635" d="m3269.893878,2392.690243c0,0 11.703,29.735 -3.198,43.185c-23.158,20.903 -80.014,0.065 -84.094,1.527c-4.417,1.582 -21.895,77.428 -21.895,77.428c-4.698,2.61 -19.366,-3.1 -19.366,-3.1s8.427,-95.888 15.745,-101.624c7.318,-5.736 54.557,-14.252 54.557,-14.252l58.251,-3.164z"/>
     <path stroke="null" id="svg_210" fill="#CAA5BF" d="m3202.550878,2397.987243c-6.749,0.759 -13.455,1.881 -20.08,3.373c-6.681,1.506 -13.278,3.383 -19.75,5.624c-2.766,0.958 -5.629,1.935 -7.987,3.724c-2.238,1.699 -3.694,4.062 -4.539,6.719c-0.848,2.669 -1.123,5.485 -1.367,8.261c-0.314,3.573 -0.626,7.145 -0.939,10.718c-0.624,7.113 -1.247,14.226 -1.87,21.339c-0.079,0.901 -0.158,1.802 -0.237,2.703c-0.044,0.497 0.733,0.495 0.776,0c0.612,-6.984 1.224,-13.968 1.837,-20.952c0.305,-3.476 0.609,-6.952 0.914,-10.428c0.263,-3.001 0.424,-6.04 1.017,-9c0.54,-2.697 1.499,-5.393 3.411,-7.434c2.004,-2.139 4.772,-3.319 7.478,-4.299c6.222,-2.253 12.595,-4.12 19.028,-5.662c6.536,-1.566 13.158,-2.778 19.826,-3.616c0.826,-0.104 1.654,-0.202 2.481,-0.295c0.492,-0.054 0.497,-0.83 0.001,-0.775z"/>
     <g stroke="null" id="svg_211">
      <path stroke="null" id="svg_212" fill="#EDBB95" d="m3167.410878,2390.496243c0,0 -14.227,5.844 -14.255,9.891c-0.028,4.047 12.702,11.51 17.739,7.357c5.037,-4.153 5.792,-11.621 5.792,-11.621l-9.276,-5.627z"/>
      <path stroke="null" id="svg_213" fill="#EDBB95" d="m3166.142878,2391.886243c0,0 -6.808,-3.243 -8.354,-1.507c-1.546,1.736 3.243,6.723 3.243,6.723l5.111,-5.216z"/>
     </g>
     <path stroke="null" id="svg_214" fill="#BE3868" d="m3201.259878,2394.767243c0,0 15.788,-31.856 4.648,-49.942c-8.406,-13.648 -7.312,-30.198 1.702,-39.14c6.013,-5.966 19.056,-12.373 27.525,-12.501c9.334,-0.142 24.597,4.761 29.273,12.84c6.01,10.382 -3.554,35.124 -5.366,46.953c-2.207,14.411 6.895,28.736 10.851,39.714c0.001,-0.001 -34.906,15.827 -68.633,2.076z"/>
     <g stroke="null" id="svg_215">
      <path stroke="null" id="svg_216" fill="#351228" d="m3169.880878,2393.048243c0.077,0.995 -0.027,2.003 -0.304,2.962c-0.071,0.247 -0.132,0.536 -0.293,0.742c-0.151,0.193 -0.375,0.326 -0.613,0.378c-0.499,0.109 -0.908,-0.141 -1.369,-0.266c-0.495,-0.134 -0.998,-0.247 -1.509,-0.289c-0.249,-0.021 -0.5,-0.024 -0.749,-0.004c-0.863,0.067 -1.741,0.445 -2.224,1.164c-0.25,0.372 -0.363,0.918 -0.051,1.24c0.21,0.217 0.553,0.258 0.846,0.181c0.293,-0.077 0.548,-0.251 0.8,-0.418c0.564,-0.372 1.149,-0.722 1.788,-0.94c0.639,-0.217 1.341,-0.296 1.993,-0.119c-0.598,0.276 -1.167,0.613 -1.695,1.004c-0.366,0.272 -0.751,0.682 -0.622,1.12c0.089,0.301 0.4,0.484 0.707,0.547c0.448,0.093 0.934,-0.016 1.301,-0.291c0.657,-0.493 0.88,-1.431 1.571,-1.877c0.498,-0.322 1.142,-0.317 1.722,-0.194c1.019,0.215 1.964,0.763 2.656,1.541c0.241,0.271 0.525,0.601 0.885,0.55c0.246,-0.035 0.436,-0.257 0.491,-0.499c0.055,-0.242 -0.004,-0.497 -0.101,-0.725c-0.286,-0.673 -0.895,-1.17 -1.566,-1.46c-0.671,-0.29 -1.407,-0.396 -2.134,-0.468c-0.262,-0.026 -0.541,-0.055 -0.746,-0.219c-0.357,-0.286 -0.327,-0.834 -0.215,-1.277c0.268,-1.063 0.827,-2.051 1.6,-2.829c-0.754,-0.204 -1.53,0.004 -2.169,0.446z"/>
      <path stroke="null" id="svg_217" fill="#788E84" d="m3207.477878,2386.558243c-0.897,0.635 -2.039,0.805 -3.135,0.881c-2.675,0.185 -5.369,0.013 -8.037,-0.301c1.053,0.216 2.078,0.577 3.034,1.07c0.529,0.274 1.068,0.62 1.308,1.166c0.238,0.545 0.019,1.322 -0.56,1.466c1.097,0.702 2.204,1.413 3.1,2.357c0.178,0.187 0.347,0.384 0.504,0.592c0.634,0.837 1.075,1.827 1.106,2.869c0.04,1.301 -0.664,2.664 -1.869,3.155c-0.999,0.408 -2.164,0.173 -3.113,-0.338c-0.949,-0.512 -1.735,-1.275 -2.54,-1.993c-4.197,-3.732 -9.2,-6.563 -14.665,-7.86c-1.232,-0.292 -2.51,-0.48 -3.77,-0.41c-0.429,0.022 -0.857,0.075 -1.281,0.165c-1.663,0.349 -3.253,1.315 -4.062,2.809c-0.22,0.407 -0.382,0.847 -0.651,1.223c-0.269,0.376 -0.681,0.692 -1.143,0.687c-0.269,-0.002 -0.552,-0.11 -0.795,0.005c-0.462,0.218 -0.452,1.078 -0.961,1.112c-0.237,-0.206 -0.554,-0.316 -0.867,-0.302c-0.487,-3.118 -1.928,-6.018 -4.396,-7.986c-3.469,-2.766 -6.827,-5.903 -8.651,-9.947c-1.466,-3.255 -1.843,-6.926 -1.505,-10.479c0.34,-3.553 1.369,-7.007 2.618,-10.351c0.444,-1.191 0.924,-2.408 0.922,-3.68c-0.001,-0.851 -0.259,-1.717 -0.814,-2.375c-0.27,-0.321 -0.617,-0.541 -0.968,-0.757c-0.321,-0.196 -0.646,-0.387 -0.922,-0.645c-1.546,-1.448 -1.134,-4.27 -0.2,-5.925c1.813,-3.213 6.437,-4.02 9.711,-2.915c2.063,0.697 3.681,2.391 4.68,4.326c0.999,1.936 1.441,4.108 1.739,6.265c0.32,2.319 0.276,4.681 0.729,6.978c0.466,2.367 1.352,4.643 2.545,6.736c1.88,3.298 4.496,6.14 7.431,8.549c3.898,3.202 8.39,5.678 13.177,7.266c0.788,0.261 1.588,0.502 2.34,0.861c0.693,0.333 1.505,0.855 1.505,0.855c0.979,0.088 2.699,0.066 3.712,0.072c1.051,0.006 2.102,0.112 3.133,0.318c1.052,0.21 2.206,0.627 2.634,1.611c0.439,1.007 -0.125,2.233 -1.023,2.87z"/>
      <path stroke="null" id="svg_218" fill="#351228" d="m3154.438878,2348.031243c0.147,-0.002 0.297,-0.006 0.434,-0.059c0.16,-0.063 0.287,-0.188 0.407,-0.312c0.213,-0.221 0.427,-0.457 0.524,-0.749c0.029,-0.088 0.047,-0.187 0.01,-0.272c-0.066,-0.157 -0.268,-0.193 -0.438,-0.208c-0.689,-0.059 -1.391,-0.117 -2.066,0.033c-0.617,0.137 -1.23,0.456 -1.669,0.915c-0.29,0.304 0.31,0.424 0.51,0.475c0.348,0.088 0.706,0.135 1.063,0.159c0.408,0.027 0.817,0.025 1.225,0.018z"/>
      <path stroke="null" id="svg_219" fill="#491635" d="m3155.233878,2344.075243c-0.973,0.196 -1.893,0.65 -2.629,1.297c-0.735,0.646 -1.284,1.484 -1.566,2.392c1.337,-0.558 2.826,-0.824 4.264,-0.676c0.141,0.014 0.301,0.027 0.41,-0.062c0.076,-0.062 0.108,-0.16 0.131,-0.252c0.235,-0.947 0.074,-1.995 -0.61,-2.699z"/>
      <path stroke="null" id="svg_220" fill="#491635" d="m3161.152878,2344.637243c0,0.618 -0.501,1.119 -1.119,1.119c-0.618,0 -1.119,-0.501 -1.119,-1.119c0,-0.618 0.501,-1.119 1.119,-1.119c0.618,0 1.119,0.501 1.119,1.119z"/>
      <path stroke="null" id="svg_221" fill="#788E84" d="m3157.359878,2374.556243c1.612,3.985 4.76,7.251 8.487,9.393c3.726,2.143 8.005,3.212 12.292,3.522c0.825,0.06 1.668,0.091 2.468,-0.12c0.8,-0.211 1.564,-0.697 1.929,-1.439c1.996,0.44 3.924,0.626 5.965,0.528c0.746,-0.036 1.63,-0.203 1.924,-0.89c1.148,0.25 2.317,0.388 3.411,-0.038s1.981,-1.583 1.739,-2.732c-0.28,-1.332 -1.776,-1.961 -3.068,-2.385c-4.69,-1.539 -9.502,-3.265 -13.081,-6.664c-1.542,-1.465 -2.803,-3.195 -4.146,-4.845c-1.344,-1.649 -2.805,-3.25 -4.628,-4.347c-1.823,-1.097 -4.065,-1.647 -6.112,-1.067c-2.047,0.58 -3.777,2.46 -3.785,4.587c-1.415,0.164 -2.84,0.945 -3.541,2.186c-0.701,1.242 -0.388,2.99 0.146,4.311z"/>
      <path stroke="null" id="svg_222" fill="#788E84" d="m3193.507878,2383.670243c-2.621,0.171 -5.241,-0.33 -7.678,-1.288c-2.368,-0.931 -4.552,-2.305 -6.526,-3.902c-1.107,-0.895 -2.153,-1.863 -3.152,-2.877c-0.213,-0.216 -0.547,0.117 -0.333,0.334c1.805,1.831 3.772,3.518 5.949,4.893c1.696,1.071 3.526,1.947 5.446,2.534c-3.024,0.543 -6.177,0.258 -9.054,-0.83c-2.894,-1.094 -5.433,-2.942 -7.745,-4.966c-1.322,-1.157 -2.583,-2.382 -3.841,-3.609c-0.217,-0.212 -0.551,0.121 -0.333,0.334c2.271,2.216 4.566,4.438 7.188,6.242c0.664,0.456 1.348,0.882 2.053,1.269c-1.105,0.585 -2.387,0.689 -3.62,0.567c-1.249,-0.124 -2.485,-0.471 -3.651,-0.925c-2.281,-0.888 -4.353,-2.308 -6.027,-4.092c-0.945,-1.008 -1.758,-2.134 -2.414,-3.35c-0.144,-0.267 -0.551,-0.029 -0.407,0.238c1.209,2.243 2.951,4.177 5.021,5.658c2.067,1.478 4.52,2.548 7.047,2.892c1.54,0.21 3.177,0.11 4.534,-0.718c0.003,-0.002 0.005,-0.004 0.009,-0.007c0.508,0.262 1.026,0.505 1.556,0.723c1.572,0.649 3.231,1.06 4.922,1.23c1.917,0.193 3.864,0.065 5.74,-0.374c0.007,-0.001 0.012,-0.004 0.018,-0.006c0.28,0.069 0.561,0.134 0.844,0.19c1.464,0.293 2.964,0.41 4.455,0.313c0.301,-0.021 0.303,-0.492 -0.001,-0.473z"/>
      <path stroke="null" id="svg_223" fill="#788E84" d="m3204.796878,2396.658243c0.04,1.301 -0.664,2.664 -1.869,3.155c-0.999,0.408 -2.164,0.173 -3.113,-0.338c-0.949,-0.512 -1.735,-1.275 -2.54,-1.993c-4.197,-3.732 -9.2,-6.563 -14.665,-7.86c-1.232,-0.292 -2.51,-0.48 -3.77,-0.41c0.836,-0.329 1.724,-0.518 2.618,-0.593c1.076,-0.091 2.165,-0.021 3.225,0.183c2.734,0.525 5.248,1.823 7.751,3.043c2.503,1.221 5.1,2.397 7.873,2.646c0.798,0.072 1.619,0.064 2.382,-0.184c0.357,-0.114 0.703,-0.289 1.002,-0.518c0.634,0.837 1.075,1.826 1.106,2.869z"/>
     </g>
     <g stroke="null" id="svg_224">
      <path stroke="null" id="svg_225" fill="#C46F8E" d="m3257.601878,2358.462243c-1.269,1.946 -3.784,2.313 -5.901,2.59c-0.209,0.027 -0.386,0.159 -0.388,0.388c-0.002,0.189 0.18,0.415 0.388,0.388c2.421,-0.316 5.129,-0.762 6.571,-2.974c0.274,-0.42 -0.398,-0.809 -0.67,-0.392z"/>
      <path stroke="null" id="svg_226" fill="#C46F8E" d="m3256.131878,2361.379243c-1.773,1.483 -4.193,2.155 -6.477,1.79c-0.488,-0.078 -0.695,0.671 -0.201,0.749c2.576,0.411 5.222,-0.313 7.224,-1.987c0.384,-0.321 -0.165,-0.87 -0.546,-0.552z"/>
     </g>
     <g stroke="null" id="svg_227">
      <g stroke="null" id="svg_228">
       <path stroke="null" id="svg_229" fill="#EDBB95" d="m3233.977878,2258.662243c0.363,5.277 1.004,12.101 1.644,18.555c0.053,0.61 0.127,1.234 0.181,1.844c0.985,9.792 1.935,18.248 1.935,18.248c-3.316,5.46 -15.159,4.361 -14.828,2.513c0.148,-0.798 0.071,-2.058 -0.239,-3.336c-0.078,-0.412 -0.19,-0.819 -0.32,-1.224c-0.002,-0.017 -0.008,-0.052 -0.03,-0.084c-0.431,-1.261 -1.076,-2.42 -1.927,-3.055c-0.337,-0.251 -0.935,-0.358 -1.7,-0.405c-0.035,0.005 -0.035,0.005 -0.035,0.005c-0.054,-0.01 -0.091,-0.022 -0.143,-0.014c-0.141,0.003 -0.212,-0.004 -0.212,-0.004c-0.353,-0.001 -0.743,-0.015 -1.166,-0.007c-0.509,0.021 -0.807,0.03 -0.807,0.03c-4.131,0.108 -10.09,0.393 -12.756,-3.736c-3.948,-6.025 -3.841,-22.488 -3.139,-30.391c0.397,-4.54 4.505,-10.751 12.405,-11.884c9.628,-1.367 20.133,-1.097 21.137,12.945z"/>
       <path stroke="null" id="svg_230" fill="#491635" d="m3203.122878,2256.538243c1.576,1.021 3.541,1.251 5.377,0.958c1.836,-0.293 3.567,-1.071 5.223,-1.947c1.439,-0.762 2.885,-1.619 4.488,-1.81c1.604,-0.191 3.438,0.49 4.068,2.035c0.268,0.659 0.301,1.42 0.677,2.019c0.807,1.283 2.633,1.151 3.961,1.819c1.781,0.895 2.494,3.218 2.338,5.268c-0.061,0.802 -0.226,1.601 -0.173,2.403c0.052,0.803 0.371,1.645 1.039,2.051c0.991,0.601 2.262,0.012 3.139,-0.756c1.797,-1.571 2.925,-3.885 3.305,-6.294c0.38,-2.409 0.046,-4.904 -0.737,-7.206c-1.53,-4.498 -4.965,-8.41 -9.366,-9.762c-3.074,-0.944 -6.364,-0.623 -9.545,-1.033c-1.721,-0.222 -3.426,-0.66 -5.159,-0.635c-2.399,0.035 -4.735,0.969 -6.722,2.368c-1.532,1.078 -3.132,2.48 -4.186,4.078c-0.903,1.369 -0.457,2.696 0.216,4.072c0.472,0.969 1.166,1.795 2.057,2.372z"/>
       <g stroke="null" id="svg_231">
        <path stroke="null" id="svg_232" fill="#C69E7F" d="m3210.116878,2274.050243c-0.396,-0.083 -0.789,-0.014 -1.119,0.227c-0.304,0.222 -0.492,0.59 -0.52,0.963c-0.029,0.403 0.142,0.79 0.411,1.084c0.276,0.301 0.634,0.493 0.996,0.67c0.137,0.067 0.313,-0.043 0.358,-0.174c0.055,-0.159 -0.037,-0.291 -0.174,-0.358c-0.438,-0.214 -1.031,-0.566 -1.032,-1.11c-0.002,-0.464 0.421,-0.869 0.896,-0.77c0.149,0.031 0.304,-0.018 0.358,-0.174c0.045,-0.13 -0.024,-0.327 -0.174,-0.358z"/>
        <path stroke="null" id="svg_233" fill="#E8A294" d="m3205.420878,2272.518243c0.114,0.669 -0.69,1.364 -1.794,1.552c-1.105,0.188 -2.092,-0.202 -2.206,-0.872c-0.114,-0.669 0.69,-1.364 1.794,-1.552c1.104,-0.188 2.092,0.202 2.206,0.872z"/>
        <path stroke="null" id="svg_234" fill="#E8A294" d="m3217.940878,2270.358243c0.062,0.676 -0.792,1.307 -1.908,1.41c-1.116,0.103 -2.071,-0.362 -2.133,-1.038c-0.062,-0.676 0.792,-1.307 1.908,-1.41c1.116,-0.103 2.071,0.361 2.133,1.038z"/>
        <path stroke="null" id="svg_235" fill="#D08E81" d="m3215.112878,2278.740243c-0.194,-0.276 -0.537,-0.298 -0.81,-0.141c-1.39,0.802 -2.958,1.254 -4.558,1.35c-0.747,0.045 -0.649,1.203 0.097,1.158c1.811,-0.109 3.559,-0.652 5.129,-1.557c0.272,-0.157 0.311,-0.57 0.142,-0.81z"/>
        <path stroke="null" id="svg_236" fill="#491635" d="m3214.754878,2263.513243c-1.208,-0.568 -2.648,-0.516 -3.796,0.179c-0.427,0.258 -0.037,0.93 0.392,0.67c0.898,-0.544 2.057,-0.629 3.013,-0.179c0.189,0.089 0.418,0.053 0.531,-0.139c0.097,-0.168 0.05,-0.441 -0.14,-0.531z"/>
        <path stroke="null" id="svg_237" fill="#491635" d="m3206.619878,2264.373243c-1.357,-0.458 -2.903,-0.112 -3.96,0.844c-0.371,0.336 0.179,0.883 0.549,0.549c0.859,-0.777 2.114,-1.013 3.205,-0.645c0.474,0.161 0.677,-0.589 0.206,-0.748z"/>
        <path stroke="null" id="svg_238" fill="#311E19" d="m3214.886878,2268.436243c-0.507,-0.674 -1.327,-1.018 -2.163,-0.864c-0.778,0.143 -1.421,0.78 -1.635,1.53c-0.137,0.481 0.611,0.687 0.748,0.206c0.139,-0.487 0.545,-0.871 1.05,-0.979c0.457,-0.098 1.038,0.11 1.33,0.499c0.126,0.167 0.335,0.254 0.531,0.139c0.164,-0.097 0.266,-0.363 0.139,-0.531z"/>
        <path stroke="null" id="svg_239" fill="#311E19" d="m3207.485878,2269.548243c-0.507,-0.674 -1.327,-1.018 -2.163,-0.864c-0.778,0.143 -1.422,0.78 -1.635,1.53c-0.137,0.481 0.611,0.686 0.748,0.206c0.139,-0.487 0.545,-0.871 1.05,-0.979c0.457,-0.098 1.038,0.11 1.33,0.499c0.126,0.167 0.335,0.254 0.531,0.139c0.164,-0.097 0.266,-0.363 0.139,-0.531z"/>
       </g>
       <g stroke="null" id="svg_240">
        <path stroke="null" id="svg_241" fill="#EDBB95" d="m3232.439878,2263.757243c1.361,-1.27 3.53,-1.715 5.156,-0.673c0.298,0.191 0.565,0.426 0.796,0.694c0.017,0.02 0.034,0.04 0.05,0.06c0.373,0.45 0.663,0.969 0.866,1.516c0.824,2.215 0.257,4.969 -1.125,6.847c-1.337,1.817 -3.754,3.062 -6.024,2.549c-0.798,-0.18 -1.522,-0.66 -1.911,-1.396c-0.487,-0.924 -0.465,-2.042 -0.418,-3.056c0.061,-1.325 0.351,-2.64 0.855,-3.868c0.36,-0.878 0.846,-1.684 1.481,-2.392c0.087,-0.098 0.178,-0.191 0.274,-0.281z"/>
        <path stroke="null" id="svg_242" fill="#C69D7F" d="m3236.372878,2265.401243c0.237,-0.045 0.394,-0.273 0.35,-0.509c-0.044,-0.237 -0.269,-0.377 -0.509,-0.35c-1.53,0.286 -2.934,1.506 -3.661,3.186c-0.684,1.578 -0.744,3.351 -0.72,4.719c0.004,0.242 0.203,0.433 0.444,0.429c0.019,0 0.038,-0.002 0.056,-0.005c0.214,-0.031 0.377,-0.218 0.373,-0.439c-0.018,-1.024 0.011,-2.172 0.288,-3.28c0.889,-0.814 2.164,-1.209 3.358,-1.023c0.236,0.039 0.461,-0.126 0.499,-0.364c0.038,-0.238 -0.125,-0.461 -0.364,-0.498c-1,-0.158 -2.042,0.042 -2.954,0.494c0.641,-1.245 1.692,-2.147 2.84,-2.36z"/>
       </g>
       <path stroke="null" id="svg_243" fill="#ECD7C7" d="m3231.909878,2288.806243c0,0 -3.39,5.682 -9.24,7.682c-0.078,-0.412 -0.19,-0.819 -0.32,-1.224c-0.002,-0.017 -0.008,-0.052 -0.03,-0.084c-0.431,-1.261 -1.076,-2.42 -1.927,-3.055c-0.337,-0.251 -0.935,-0.358 -1.7,-0.405c-0.035,0.005 -0.035,0.005 -0.035,0.005c-0.054,-0.01 -0.091,-0.022 -0.143,-0.014c-0.141,0.003 -0.212,-0.004 -0.212,-0.004c-0.353,-0.001 -0.743,-0.015 -1.166,-0.007c2.418,-0.123 9.783,-0.685 14.773,-2.894z"/>
      </g>
     </g>
     <path stroke="null" id="svg_244" fill="#EDBB95" d="m3265.694878,2310.566243c0,0 -7.046,34.116 -14.889,44.939c-8.241,11.373 -47.667,29.735 -47.667,29.735l-5.91,-9.098c0,0 30.892,-19.561 37.112,-29.684c5.732,-9.328 11.341,-39.359 11.341,-39.359l20.013,3.467z"/>
     <g stroke="null" id="svg_245">
      <path stroke="null" id="svg_246" fill="#EDBB95" d="m3197.228878,2376.141243c0,0 -15.353,-0.917 -17.136,2.716c-1.783,3.633 6.44,15.885 12.781,14.333c6.341,-1.552 10.266,-7.95 10.266,-7.95l-5.911,-9.099z"/>
      <path stroke="null" id="svg_247" fill="#EDBB95" d="m3195.482878,2376.842243c0,0 -4.723,-5.878 -6.869,-4.987c-2.147,0.892 0,7.464 0,7.464l6.869,-2.477z"/>
     </g>
     <path stroke="null" id="svg_248" fill="#BE3868" d="m3236.307878,2331.255243c0,0 8.301,5.498 23.718,7.51c0,0 15.09,-34.133 -2.653,-36.918c-17.041,-2.674 -21.065,29.408 -21.065,29.408z"/>
     <path stroke="null" id="svg_249" fill="#C46F8E" d="m3245.701878,2307.870243c-4.736,4.892 -7.765,11.315 -8.517,18.083c-0.082,0.738 1.057,0.966 1.14,0.222c0.732,-6.584 3.641,-12.777 8.25,-17.538c0.52,-0.539 -0.355,-1.303 -0.873,-0.767z"/>
     <g stroke="null" id="svg_250">
      <path stroke="null" id="svg_251" fill="#ECD7C7" d="m3239.558878,2349.991243c-1.452,-1.101 -3.285,-1.664 -5.105,-1.582c-0.497,0.022 -0.5,0.799 0,0.776c1.7,-0.077 3.358,0.449 4.713,1.476c0.167,0.127 0.434,0.026 0.531,-0.139c0.117,-0.199 0.029,-0.404 -0.139,-0.531z"/>
      <path stroke="null" id="svg_252" fill="#ECD7C7" d="m3241.785878,2348.911243c-1.746,-1.191 -3.908,-1.731 -6.008,-1.492c-0.21,0.024 -0.386,0.161 -0.388,0.388c-0.002,0.192 0.18,0.412 0.388,0.388c1.981,-0.225 3.969,0.262 5.616,1.386c0.414,0.283 0.802,-0.389 0.392,-0.67z"/>
     </g>
     <g stroke="null" id="svg_253">
      <path stroke="null" id="svg_254" fill="#ECD7C7" d="m3198.432878,2357.694243c-1.252,-0.737 -2.721,-1.082 -4.17,-0.963c-0.209,0.017 -0.388,0.166 -0.388,0.388c0,0.197 0.178,0.405 0.388,0.388c1.321,-0.108 2.635,0.184 3.778,0.857c0.432,0.254 0.823,-0.417 0.392,-0.67z"/>
      <path stroke="null" id="svg_255" fill="#ECD7C7" d="m3199.791878,2355.489243c-1.64,-0.45 -3.389,-0.421 -5.012,0.09c-0.475,0.15 -0.272,0.899 0.206,0.748c1.496,-0.472 3.086,-0.506 4.599,-0.09c0.483,0.133 0.689,-0.615 0.207,-0.748z"/>
     </g>
    </g>
    <g stroke="null" id="svg_256">
     <path stroke="null" id="svg_257" fill="#677F74" d="m3035.208878,2451.599243c-2.467,-22.454 -6.057,-45.045 -14.228,-66.214c-7.068,-18.313 -17.661,-35.466 -32.42,-48.582c-8.025,-7.132 -17.153,-12.894 -27.168,-16.79c-1.971,-0.767 -2.825,2.408 -0.873,3.167c17.242,6.708 31.585,19.443 42.157,34.447c11.993,17.02 19.091,36.842 23.507,57.063c2.659,12.175 4.381,24.529 5.741,36.91c0.228,2.077 3.515,2.1 3.284,-0.001z"/>
     <path stroke="null" id="svg_258" fill="#677F74" d="m3067.287878,2266.605243c-17.115,17.839 -23.576,42.507 -26.093,66.454c-2.82,26.821 -2.736,54.121 -0.836,81.001c1.072,15.167 2.836,30.282 5.248,45.293c0.334,2.081 3.5,1.198 3.167,-0.873c-4.228,-26.316 -6.363,-52.961 -6.394,-79.614c-0.015,-13.188 0.434,-26.397 1.515,-39.543c1.044,-12.698 2.884,-25.41 6.832,-37.561c3.933,-12.102 10.029,-23.608 18.883,-32.836c1.464,-1.525 -0.855,-3.85 -2.322,-2.321z"/>
     <path stroke="null" id="svg_259" fill="#677F74" d="m3098.889878,2343.677243c-18.794,2.68 -36.477,12.215 -49.277,26.205c-3.611,3.947 -6.833,8.25 -9.602,12.826c-1.097,1.813 1.742,3.465 2.836,1.658c9.505,-15.709 24.632,-27.838 41.957,-33.887c4.857,-1.696 9.867,-2.909 14.959,-3.635c2.084,-0.297 1.198,-3.462 -0.873,-3.167z"/>
     <path stroke="null" id="svg_260" fill="#788E84" d="m3024.879878,2404.836243c-18.183,-8.897 -39.027,-12.264 -59.087,-9.545c0.482,2.49 1.721,4.534 3.73,6.081c7.557,5.815 17.292,8.301 26.827,8.384c9.535,0.082 19.389,-2.206 28.53,-4.92z"/>
     <path stroke="null" id="svg_261" fill="#788E84" d="m3012.579878,2371.205243c-3.916,-19.084 -1.857,-39.349 5.817,-57.255c2.57,4.121 3.869,9.172 4.526,13.985c0.656,4.812 0.632,9.688 0.607,14.545c-0.029,5.693 -0.065,11.442 -1.365,16.985c-0.603,2.574 -1.495,5.12 -3.017,7.282c-1.522,2.161 -3.991,3.865 -6.568,4.458z"/>
     <path stroke="null" id="svg_262" fill="#788E84" d="m3083.261878,2361.444243c-4.654,1.388 -8.85,4.073 -12.451,7.332c-3.601,3.259 -6.64,7.089 -9.469,11.037c-7.679,10.716 -13.938,22.449 -18.561,34.795c9.98,0.527 20.023,-4.151 27.043,-11.265c7.02,-7.114 11.375,-16.543 13.618,-26.283c1.145,-4.97 1.672,-10.863 -0.18,-15.616z"/>
     <path stroke="null" id="svg_263" fill="#788E84" d="m3071.183878,2354.222243c0.107,-6.838 1.723,-13.564 3.682,-20.117c2.973,-9.945 6.758,-19.648 11.304,-28.979c5.212,11.168 4.681,25.03 -2.206,35.251c-3.502,5.197 -8.051,9.731 -12.78,13.845z"/>
     <path stroke="null" id="svg_264" fill="#788E84" d="m3096.660878,2343.914243c19.691,-2.475 40.351,4.326 54.722,18.013c-9.747,2.719 -20.34,2.97 -29.94,-0.232c-9.599,-3.202 -18.619,-9.755 -24.782,-17.781z"/>
     <path stroke="null" id="svg_265" fill="#788E84" d="m2992.797878,2344.212243c-19.98,-6.293 -41.736,-6.834 -62.004,-1.544c5.15,7.492 14.265,11.394 23.346,11.855c9.08,0.461 18.044,-1.935 26.754,-4.542c4.113,-1.231 8.676,-2.939 11.904,-5.769z"/>
     <path stroke="null" id="svg_266" fill="#788E84" d="m2962.056878,2323.692243c-6.462,-2.375 -11.633,-7.35 -15.956,-12.709c-7.772,-9.634 -13.53,-21.262 -14.383,-33.612c4.192,0.409 8.137,2.445 11.497,4.984c3.36,2.539 6.147,5.766 8.611,9.181c6.707,9.294 11.088,20.728 10.231,32.156z"/>
     <path stroke="null" id="svg_267" fill="#788E84" d="m3044.489878,2312.080243c-0.86,-8.185 -4.29,-15.866 -8.056,-23.183c-2.598,-5.048 -5.395,-10.026 -8.913,-14.482c-3.518,-4.456 -7.799,-8.393 -12.868,-10.952c-0.001,10.011 2.757,19.629 7.872,28.235c5.115,8.606 13.171,15.597 21.965,20.382z"/>
     <path stroke="null" id="svg_268" fill="#788E84" d="m3056.664878,2284.341243c10.215,-7.572 23.261,-11.227 35.923,-10.064c-0.869,2.473 -2.691,4.467 -4.91,5.861c-2.219,1.395 -4.744,2.225 -7.28,2.885c-7.7,2.005 -15.835,2.287 -23.733,1.318z"/>
     <path stroke="null" id="svg_269" fill="#788E84" d="m3065.393878,2268.936243c14.385,-16.281 33.358,-24.616 51.911,-22.803c-2.206,5.601 -6.034,10.191 -10.102,13.205s-8.552,4.803 -13.053,6.223c-9.328,2.943 -19.188,3.463 -28.756,3.375z"/>
     <polygon stroke="null" id="svg_270" fill="#BE3868" points="3039.857879638672,2448.693260192871 3002.868865966797,2448.693260192871 3017.294891357422,2525.261375427246 3039.857879638672,2525.261375427246 3062.421844482422,2525.261375427246 3076.847869873047,2448.693260192871 "/>
     <rect stroke="null" id="svg_271" fill="#AC335F" height="20.714" width="81.13" y="2441.295243" x="2999.292878"/>
    </g>
    <g stroke="null" id="svg_272">
     <path stroke="null" id="svg_273" fill="#EDBB95" d="m3131.715878,2515.849243c0,0 2.035,5.609 9.716,8.382l21.421,-32.84c0,0 -4.348,-4.004 -8.664,0.674c-4.317,4.678 -15.8,10.366 -15.8,10.366l-6.673,13.418z"/>
     <path stroke="null" id="svg_274" fill="#677F74" d="m2958.511878,2524.769243c0,0 66.969,-14.718 91.61,-14.824c19.052,-0.082 79.493,11.728 79.493,11.728s11.823,-12.748 9.512,-24.901c0,0 -65.818,-18.703 -85.426,-21.194c-22.027,-2.798 -82.658,-3.556 -82.658,-3.556l-12.531,52.747z"/>
     <path stroke="null" id="svg_275" fill="#788E84" d="m3002.695878,2510.246243c-3.245,2.43 -6.649,4.639 -10.189,6.613c-0.436,0.243 -0.045,0.914 0.392,0.67c3.54,-1.974 6.944,-4.184 10.189,-6.613c0.395,-0.296 0.009,-0.97 -0.392,-0.67z"/>
     <g stroke="null" id="svg_276">
      <path stroke="null" id="svg_277" fill="#491635" d="m3003.806878,2336.268243c1.014,-2.759 1.424,-5.828 0.593,-8.647c-0.202,-0.686 -0.48,-1.387 -0.37,-2.094c0.095,-0.615 0.47,-1.142 0.772,-1.686c1.349,-2.431 1.255,-5.597 -0.238,-7.943c-1.493,-2.346 -4.32,-3.773 -7.094,-3.581c-2.774,0.193 -5.377,1.997 -6.531,4.526c-0.949,-2.102 -3.706,-3.167 -5.822,-2.25c-1.054,0.457 -1.888,1.299 -2.873,1.892c-0.871,0.524 -1.846,0.845 -2.812,1.161c-2.522,0.826 -5.044,1.651 -7.566,2.477c-2.163,0.708 -4.394,1.455 -6.089,2.974c-1.606,1.44 -2.596,3.479 -3.039,5.59c-0.443,2.111 -0.371,4.3 -0.106,6.44c0.409,3.307 1.336,6.675 3.493,9.214c2.514,2.959 6.444,4.439 10.317,4.712c3.874,0.273 7.738,-0.539 11.5,-1.503c2.919,-0.748 5.813,-1.591 8.677,-2.527c0.982,-0.321 2.41,-0.532 3.164,-1.297c0.791,-0.803 1.336,-2.069 1.894,-3.037c0.818,-1.418 1.564,-2.882 2.13,-4.421z"/>
      <g stroke="null" id="svg_278">
       <g stroke="null" id="svg_279">
        <path stroke="null" id="svg_280" fill="#EDBB95" d="m3068.979878,2440.957243c0,0 13.742,-5.185 17.586,-3.931c3.844,1.254 2.824,21.204 -4.657,20.164s-18.973,-5.598 -18.973,-5.598l6.044,-10.635z"/>
        <path stroke="null" id="svg_281" fill="#EDBB95" d="m3071.109878,2441.833243c0,0 2.361,-10.589 5.301,-10.585c3.461,0.006 1.783,9.709 1.783,9.709l-7.084,0.876z"/>
       </g>
       <path stroke="null" id="svg_282" fill="#EDBB95" d="m2998.015878,2384.705243c0,0 13.412,31.935 22.02,39.146c9.936,8.324 48.944,17.106 48.944,17.106l-6.044,10.635c0,0 -40.925,-7.587 -53.006,-14.069c-6.185,-3.318 -21.004,-18.626 -21.004,-18.626l9.09,-34.192z"/>
       <path stroke="null" id="svg_283" fill="#491635" d="m2997.686878,2384.138243c0,0 13.895,26.635 15.942,29.343c0,0 -4.888,13.474 -14.531,19.485l-7.86,-7.001l6.449,-41.827z"/>
       <path stroke="null" id="svg_284" fill="#ECD7C7" d="m3019.071878,2424.400243c-0.38,1.333 -1.165,2.509 -2.236,3.387c-0.162,0.133 -0.138,0.411 0,0.549c0.16,0.16 0.386,0.133 0.549,0c1.169,-0.958 2.022,-2.277 2.436,-3.73c0.137,-0.48 -0.612,-0.686 -0.749,-0.206z"/>
       <path stroke="null" id="svg_285" fill="#ECD7C7" d="m3019.836878,2425.651243c-0.029,1.62 -0.572,3.181 -1.532,4.483c-0.124,0.169 -0.028,0.433 0.139,0.531c0.197,0.115 0.406,0.03 0.531,-0.139c1.038,-1.408 1.606,-3.128 1.638,-4.875c0.009,-0.5 -0.767,-0.5 -0.776,0z"/>
      </g>
      <g stroke="null" id="svg_286">
       <g stroke="null" id="svg_287">
        <g stroke="null" id="svg_288">
         <path stroke="null" id="svg_289" fill="#491635" d="m2928.849878,2470.493243c0,0 50.602,10.905 75.383,2.946c0,0 -6.974,-16.591 -7.466,-41.518c-0.453,-22.964 2.624,-44.642 1.249,-47.216c-4.753,-8.901 -26.486,-14.775 -32.216,-14.61c-3.425,0.097 -8.572,1.401 -13.602,3.435c-2.287,0.914 -4.554,1.995 -6.616,3.172c-4.106,2.335 -7.443,5.098 -8.679,7.939c-1.341,3.071 -0.78,23 -2.404,42.886c-1.756,21.509 -5.649,42.966 -5.649,42.966z"/>
        </g>
       </g>
      </g>
      <g stroke="null" id="svg_290">
       <path stroke="null" id="svg_291" fill="#CAA5BF" d="m2950.109878,2425.786243c-2.964,0.353 -5.954,-0.384 -8.409,-2.083c-0.412,-0.285 -0.8,0.387 -0.392,0.67c2.551,1.765 5.719,2.556 8.801,2.189c0.49,-0.058 0.496,-0.835 0,-0.776z"/>
       <path stroke="null" id="svg_292" fill="#CAA5BF" d="m2947.742878,2427.826243c-2.007,-0.029 -3.943,-0.861 -5.35,-2.291c-0.351,-0.357 -0.899,0.192 -0.549,0.549c1.549,1.574 3.692,2.487 5.899,2.519c0.5,0.006 0.5,-0.77 0,-0.777z"/>
       <path stroke="null" id="svg_293" fill="#CAA5BF" d="m2997.261878,2428.511243c-1.388,-5.813 -1.48,-11.894 -0.263,-17.745c0.101,-0.487 -0.647,-0.696 -0.748,-0.206c-1.246,5.991 -1.158,12.206 0.263,18.158c0.116,0.485 0.864,0.279 0.748,-0.207z"/>
       <path stroke="null" id="svg_294" fill="#CAA5BF" d="m2942.948878,2406.964243c-1.043,3.843 -2.804,7.449 -5.183,10.641c-0.299,0.401 0.375,0.788 0.67,0.392c2.417,-3.242 4.202,-6.924 5.262,-10.826c0.131,-0.484 -0.618,-0.69 -0.749,-0.207z"/>
      </g>
      <g stroke="null" id="svg_295">
       <g stroke="null" id="svg_296">
        <path stroke="null" id="svg_297" fill="#EDBB95" d="m2967.609878,2337.714243c-0.501,5.179 -1.318,11.873 -2.124,18.203c-0.069,0.598 -0.159,1.211 -0.228,1.809c-1.237,9.603 -2.401,17.893 -2.401,17.893c3.112,5.46 14.789,4.703 14.514,2.877c-0.124,-0.789 -0.014,-2.026 0.326,-3.274c0.088,-0.403 0.209,-0.801 0.348,-1.195c0.003,-0.017 0.009,-0.051 0.032,-0.082c0.458,-1.228 1.124,-2.35 1.979,-2.951c0.338,-0.238 0.929,-0.327 1.683,-0.352c0.034,0.006 0.034,0.006 0.034,0.006c0.054,-0.008 0.091,-0.019 0.141,-0.01c0.138,0.007 0.209,0.001 0.209,0.001c0.348,0.008 0.732,0.005 1.147,0.025c0.5,0.035 0.793,0.051 0.793,0.051c4.06,0.219 9.912,0.663 12.647,-3.326c4.048,-5.817 4.392,-22.011 3.917,-29.802c-0.267,-4.476 -4.136,-10.696 -11.874,-12.026c-9.434,-1.608 -19.771,-1.629 -21.143,12.153z"/>
        <path stroke="null" id="svg_298" fill="#491635" d="m2981.478878,2330.996243c-1.09,2.033 -3.693,3.115 -5.903,2.454c-0.197,3.649 -1.621,7.221 -3.989,10.004c-0.561,0.66 -1.187,1.286 -1.954,1.688c-0.767,0.402 -1.698,0.557 -2.509,0.254c-1.419,-0.531 -2.006,-2.186 -2.397,-3.649c-0.62,-2.317 -1.186,-4.67 -1.259,-7.067c-0.073,-2.397 0.379,-4.866 1.664,-6.891c1.205,-1.9 3.08,-3.308 5.123,-4.25c2.043,-0.942 4.259,-1.447 6.476,-1.829c5.224,-0.9 10.591,-1.149 15.831,-0.343c1.952,0.3 3.93,0.765 5.58,1.85c1.392,0.915 2.529,2.339 2.849,3.999c0.17,0.879 0.043,1.181 -0.711,1.664c-0.757,0.485 -1.546,0.92 -2.36,1.302c-3.257,1.53 -6.902,2.224 -10.493,2.023c-2.027,-0.114 -4.04,-0.514 -5.948,-1.209z"/>
        <g stroke="null" id="svg_299">
         <path stroke="null" id="svg_300" fill="#C69E7F" d="m2990.496878,2353.122243c0.392,-0.071 0.776,0.007 1.094,0.254c0.292,0.227 0.468,0.594 0.485,0.961c0.018,0.397 -0.161,0.773 -0.434,1.054c-0.28,0.288 -0.637,0.468 -0.998,0.632c-0.136,0.062 -0.306,-0.051 -0.347,-0.181c-0.05,-0.157 0.045,-0.285 0.181,-0.347c0.437,-0.199 1.029,-0.528 1.046,-1.064c0.014,-0.456 -0.39,-0.866 -0.86,-0.781c-0.147,0.026 -0.299,-0.026 -0.347,-0.181c-0.041,-0.128 0.033,-0.32 0.18,-0.347z"/>
         <path stroke="null" id="svg_301" fill="#E8A294" d="m2994.623878,2352.075243c-0.074,0.664 0.753,1.301 1.849,1.424c1.095,0.123 2.044,-0.316 2.118,-0.979c0.074,-0.664 -0.754,-1.301 -1.849,-1.424c-1.095,-0.123 -2.044,0.315 -2.118,0.979z"/>
         <path stroke="null" id="svg_302" fill="#E8A294" d="m2983.269878,2350.098243c-0.075,0.664 0.754,1.301 1.849,1.424c1.096,0.123 2.044,-0.316 2.118,-0.979c0.074,-0.664 -0.753,-1.301 -1.849,-1.424c-1.095,-0.124 -2.044,0.315 -2.118,0.979z"/>
         <path stroke="null" id="svg_303" fill="#491635" d="m2990.345878,2342.262243c-1.154,-0.497 -2.448,-0.585 -3.648,-0.189c-0.212,0.07 -0.35,0.285 -0.288,0.508c0.057,0.207 0.295,0.358 0.508,0.288c0.975,-0.321 2.063,-0.303 3.011,0.106c0.205,0.088 0.443,0.061 0.565,-0.148c0.102,-0.174 0.058,-0.476 -0.148,-0.565z"/>
         <path stroke="null" id="svg_304" fill="#311E19" d="m2994.061878,2348.537243c-0.13,0.746 0.241,1.433 0.827,1.535c0.587,0.102 1.168,-0.419 1.298,-1.165c0.13,-0.746 -0.241,-1.433 -0.827,-1.536c-0.587,-0.102 -1.168,0.42 -1.298,1.166z"/>
         <path stroke="null" id="svg_305" fill="#311E19" d="m2986.931878,2347.295243c-0.13,0.746 0.241,1.433 0.827,1.536c0.587,0.102 1.168,-0.42 1.298,-1.165s-0.241,-1.433 -0.827,-1.536c-0.587,-0.102 -1.168,0.419 -1.298,1.165z"/>
         <path stroke="null" id="svg_306" fill="#491635" d="m2997.961878,2343.947243c-1.047,-0.877 -2.406,-1.243 -3.752,-1.019c-0.22,0.037 -0.343,0.309 -0.288,0.508c0.064,0.233 0.287,0.325 0.508,0.288c1.019,-0.17 2.143,0.132 2.949,0.807c0.171,0.143 0.416,0.167 0.584,0c0.146,-0.147 0.17,-0.44 -0.001,-0.584z"/>
         <g stroke="null" id="svg_307">
          <path stroke="null" id="svg_308" fill="#D08E81" d="m2991.581878,2360.421243c-0.225,0.574 -0.753,0.993 -1.335,1.195c-0.039,0.016 -0.078,0.023 -0.116,0.039c-0.629,0.186 -1.304,0.147 -1.948,0.031c-0.893,-0.155 -1.777,-0.466 -2.484,-1.024c-0.574,-0.45 -1.032,-1.087 -1.203,-1.793c-0.047,-0.163 -0.078,-0.334 -0.085,-0.504c-0.023,-0.505 0.116,-1.056 0.504,-1.382c0.295,-0.241 0.691,-0.318 1.079,-0.272c0.14,0.008 0.272,0.039 0.404,0.078c0.497,0.147 0.931,0.45 1.374,0.722c0.466,0.287 1.009,0.559 1.529,0.745c0.59,0.21 1.257,0.046 1.801,0.411c0.015,0.008 0.031,0.023 0.047,0.039c0.511,0.373 0.666,1.118 0.433,1.715z"/>
          <path stroke="null" id="svg_309" fill="#FFFFFF" d="m2991.147878,2358.706243c-0.101,0.248 -0.264,0.466 -0.497,0.605c-0.404,0.233 -0.908,0.186 -1.358,0.085c-0.691,-0.147 -1.35,-0.411 -1.956,-0.76c-0.435,-0.248 -0.846,-0.551 -1.11,-0.978c-0.171,-0.279 -0.264,-0.621 -0.233,-0.947c0.14,0.008 0.272,0.039 0.404,0.078c0.497,0.147 0.931,0.45 1.374,0.722c0.466,0.287 1.009,0.559 1.529,0.745c0.59,0.21 1.257,0.046 1.801,0.411c0.015,0.008 0.03,0.024 0.046,0.039z"/>
          <path stroke="null" id="svg_310" fill="#BB776B" d="m2990.246878,2361.616243c-0.039,0.016 -0.078,0.023 -0.116,0.039c-0.629,0.186 -1.304,0.147 -1.948,0.031c-0.893,-0.155 -1.777,-0.466 -2.484,-1.024c-0.574,-0.45 -1.032,-1.087 -1.203,-1.793c1.203,-0.178 2.476,-0.062 3.57,0.473c0.971,0.466 1.786,1.289 2.181,2.274z"/>
         </g>
        </g>
        <g stroke="null" id="svg_311">
         <path stroke="null" id="svg_312" fill="#EDBB95" d="m2968.983878,2342.767243c-1.303,-1.286 -3.424,-1.783 -5.052,-0.803c-0.298,0.179 -0.568,0.404 -0.801,0.661c-0.017,0.019 -0.034,0.038 -0.051,0.057c-0.379,0.433 -0.678,0.935 -0.893,1.467c-0.871,2.155 -0.388,4.879 0.92,6.764c1.265,1.823 3.608,3.113 5.855,2.671c0.789,-0.155 1.515,-0.607 1.917,-1.321c0.504,-0.895 0.513,-1.995 0.494,-2.994c-0.024,-1.305 -0.273,-2.606 -0.735,-3.827c-0.33,-0.874 -0.786,-1.679 -1.391,-2.393c-0.084,-0.098 -0.172,-0.192 -0.263,-0.282z"/>
         <path stroke="null" id="svg_313" fill="#C69D7F" d="m2968.412878,2346.597243c-0.532,-1.23 -1.51,-2.687 -2.924,-2.951c-0.488,-0.091 -0.698,0.657 -0.206,0.748c0.981,0.183 1.695,1.088 2.167,1.983c-0.157,-0.04 -0.317,-0.068 -0.483,-0.076c-0.538,-0.024 -1.096,0.151 -1.526,0.475c-0.167,0.126 -0.254,0.335 -0.139,0.531c0.096,0.164 0.363,0.266 0.531,0.139c0.34,-0.257 0.694,-0.38 1.092,-0.371c0.327,0.008 0.704,0.143 0.966,0.35c0.351,1.029 0.467,2.139 0.29,3.212c-0.081,0.488 0.667,0.698 0.748,0.206c0.24,-1.442 0.065,-2.903 -0.516,-4.246z"/>
        </g>
        <path stroke="null" id="svg_314" fill="#ECD7C7" d="m2968.819878,2367.415243c0,0 3.179,5.681 8.877,7.807c0.088,-0.403 0.209,-0.801 0.348,-1.195c0.003,-0.017 0.009,-0.051 0.032,-0.082c0.458,-1.228 1.124,-2.35 1.979,-2.951c0.338,-0.238 0.929,-0.327 1.683,-0.352c0.034,0.006 0.034,0.006 0.034,0.006c0.054,-0.008 0.091,-0.019 0.141,-0.01c0.138,0.007 0.209,0.001 0.209,0.001c0.348,0.008 0.732,0.005 1.147,0.025c-2.375,-0.187 -9.603,-0.94 -14.45,-3.249z"/>
       </g>
      </g>
      <path stroke="null" id="svg_315" fill="#EDBB95" d="m2938.973878,2381.643243c-13.457,12.286 -27.888,45.256 -22.696,54.719c5.438,9.91 61.58,13.309 61.58,13.309l1.835,-11.787c0,0 -41.554,-8.882 -44.693,-12.805c-1.053,-1.317 3.974,-43.436 3.974,-43.436z"/>
      <g stroke="null" id="svg_316">
       <path stroke="null" id="svg_317" fill="#EDBB95" d="m2979.693878,2437.884243c0,0 9.103,-8.735 13.129,-9.112c4.026,-0.377 12.494,16.929 5.216,18.947c-7.278,2.018 -20.181,1.952 -20.181,1.952l1.836,-11.787z"/>
       <path stroke="null" id="svg_318" fill="#EDBB95" d="m2979.906878,2437.865243c0,0 2.974,-10.434 5.908,-10.258c3.455,0.207 1.215,9.796 1.215,9.796l-7.123,0.462z"/>
      </g>
      <path stroke="null" id="svg_319" fill="#491635" d="m2938.973878,2381.643243c0,0 -9.593,6.54 -20.69,29.129c0,0 5.053,5.846 19.221,8.124l1.469,-37.253z"/>
      <g stroke="null" id="svg_320">
       <path stroke="null" id="svg_321" fill="#ECD7C7" d="m2932.941878,2425.286243c-1.936,0.394 -3.658,1.596 -4.719,3.259c-0.27,0.422 0.402,0.812 0.67,0.392c0.958,-1.501 2.514,-2.548 4.255,-2.902c0.489,-0.1 0.282,-0.849 -0.206,-0.749z"/>
       <path stroke="null" id="svg_322" fill="#ECD7C7" d="m2933.337878,2426.321243c-0.966,0.929 -1.693,2.08 -2.132,3.345c-0.069,0.198 0.078,0.424 0.271,0.477c0.214,0.059 0.408,-0.072 0.477,-0.271c0.396,-1.139 1.064,-2.167 1.933,-3.003c0.361,-0.346 -0.189,-0.894 -0.549,-0.548z"/>
      </g>
     </g>
     <g stroke="null" id="svg_323">
      <g stroke="null" id="svg_324">
       <path stroke="null" id="svg_325" fill="#C18E7B" d="m3012.878878,2489.146243c-4.269,5.696 -10.492,10.313 -17.575,11.02c-1.448,0.144 -2.932,0.129 -4.315,0.582c-1.383,0.452 -2.69,1.512 -2.912,2.95c-0.31,2.011 1.549,3.694 3.394,4.552c3.104,1.443 6.722,1.747 10.022,0.842c1.414,1.877 4.017,2.766 6.285,2.146c1.318,-0.361 2.498,-1.173 3.848,-1.391c1.486,-0.24 2.986,0.269 4.491,0.317c2.703,0.085 5.257,-1.335 7.252,-3.162c3.678,-3.37 5.863,-8.16 6.699,-13.078c0.835,-4.918 0.403,-9.976 -0.545,-14.874c-0.404,-2.088 -0.917,-4.198 -2.022,-6.016c-0.734,-1.206 -2.246,-3.091 -3.785,-3.235c-1.537,-0.144 -2.03,1.899 -2.462,3.004c-1.441,3.684 -2.962,7.348 -4.859,10.824c-1.047,1.917 -2.207,3.772 -3.516,5.519z"/>
       <path stroke="null" id="svg_326" fill="#C18E7B" d="m3108.597878,2495.897243c-2.018,2.94 -3.531,6.33 -3.696,9.892c-0.165,3.562 1.174,7.301 3.992,9.487c1.605,1.245 3.605,1.95 5.068,3.359c1.375,1.324 2.567,4.121 2.536,6.029l-15.932,0c-3.711,-3.962 -6.127,-10.037 -6.316,-15.462c-0.093,-2.681 0.305,-5.413 1.446,-7.841c1.142,-2.428 3.067,-4.534 5.519,-5.622c2.452,-1.09 5.074,-1.209 7.383,0.158z"/>
       <path stroke="null" id="svg_327" fill="#C18E7B" d="m3032.408878,2524.663243l13.572,0c0.936,-3.164 -0.386,-6.792 -2.712,-8.952c-1.226,-1.139 -2.786,-1.879 -3.768,-3.269c-1.078,-1.528 -1.268,-3.632 -0.876,-5.509c0.393,-1.877 1.303,-3.574 2.267,-5.19c-2.281,-0.661 -4.7,0.05 -6.91,0.949c-2.638,1.073 -5.33,2.564 -6.753,5.203c-1.504,2.79 -1.264,6.374 -0.096,9.348c1.167,2.973 3.316,4.986 5.276,7.42z"/>
       <path stroke="null" id="svg_328" fill="#D7A997" d="m3136.947878,2444.886243c-0.109,0.83 -0.598,1.568 -1.164,2.181c-0.567,0.613 -1.219,1.141 -1.785,1.754c-0.621,0.667 -1.133,1.444 -1.669,2.189c-0.318,0.45 -0.644,0.885 -1.017,1.273c-0.411,0.45 -0.869,0.838 -1.412,1.133c-1.055,0.574 -2.305,0.683 -3.5,0.644c-1.203,-0.039 -2.794,-0.512 -3.997,-0.473c0.054,0.303 0.101,0.613 0.14,0.916c0.171,1.125 0.287,2.259 0.365,3.399c0.085,1.273 0.155,2.631 0.652,3.834c0.093,0.233 0.21,0.466 0.186,0.722c-0.031,0.334 -0.295,0.605 -0.442,0.908c-0.194,0.427 -0.155,0.923 -0.078,1.389c0.078,0.466 0.202,0.931 0.14,1.405c-0.023,0.21 -0.093,0.419 -0.202,0.605c-0.132,0.21 -0.427,0.287 -0.536,0.458c-0.116,0.178 -0.093,0.574 -0.124,0.784c-0.046,0.334 -0.093,0.667 -0.147,1.001c-0.202,1.273 -0.45,2.546 -0.745,3.811c-0.582,2.522 -1.327,5.014 -2.22,7.451c-0.272,0.753 -0.559,1.505 -0.861,2.251c-1.583,3.919 -3.578,7.784 -6.674,10.671c-2.126,1.987 -4.695,3.43 -7.086,5.091c0,0 -0.008,0 -0.008,0.008c-2.39,1.653 -5.479,2.887 -6.069,5.735c-0.629,3.058 -1.055,6.426 0.466,9.158c0.97,1.746 2.608,2.988 3.974,4.447c1.374,1.451 4.113,5.076 3.749,7.031l-17.214,0c-0.217,0 -2.088,-2.577 -2.22,-2.778c-0.349,-0.536 -0.675,-1.087 -0.978,-1.645c-0.59,-1.094 -1.094,-2.227 -1.514,-3.392c-0.21,-0.605 -0.404,-1.211 -0.574,-1.824c-0.14,-0.528 -0.163,-1.35 -0.435,-1.808c-0.427,-0.729 -1.762,-0.489 -1.661,-1.7c0.031,-0.396 0.248,-0.737 0.38,-1.11c0.14,-0.372 0.163,-0.838 -0.132,-1.102c-0.163,-0.147 -0.411,-0.21 -0.536,-0.396c-0.233,-0.341 0.101,-0.776 0.373,-1.079c1.622,-1.801 1.428,-4.323 2.064,-6.535c-10.485,0.334 -20.955,-2.01 -30.555,-6.24c-1.901,3.834 -5.277,6.744 -8.855,9.104c-3.57,2.359 -7.435,4.276 -10.92,6.76c-0.652,0.466 -1.296,0.955 -1.77,1.599c-0.473,0.652 -0.753,1.474 -0.582,2.258c0.318,1.475 1.956,2.165 3.081,3.159c1.831,1.622 2.771,4.548 1.669,6.729l-18.099,0c-0.815,-7.14 -1.482,-14.963 2.499,-20.947c1.412,-2.127 3.384,-3.974 4.043,-6.434c0.38,-1.428 0.264,-2.941 -0.124,-4.362c-0.388,-1.405 -0.675,-2.274 -2.196,-2.507c-0.582,-0.085 -1.265,-0.31 -1.405,-0.885c-0.148,-0.605 0.419,-1.203 0.295,-1.808c-0.085,-0.419 -0.466,-0.698 -0.761,-1.001c-0.458,-0.466 -0.761,-1.094 -0.854,-1.746c-0.093,-0.644 0.109,-1.11 -0.163,-1.715c-0.505,-1.125 -0.916,-2.282 -1.211,-3.485c-0.582,-2.383 -0.722,-4.866 -0.481,-7.303c0.59,-6.023 3.423,-11.843 7.761,-16.058c7.194,-7 17.68,-9.841 27.715,-9.562c7.714,0.21 15.343,2.088 23.058,1.816c1.529,-0.054 3.058,-0.217 4.563,-0.489c3.399,-0.605 6.744,-1.777 9.624,-3.717c2.266,-1.529 4.323,-3.5 5.363,-5.961c0.442,-1.04 0.698,-2.158 0.714,-3.376c0.047,-2.903 0.675,-5.611 2.452,-7.978c3.353,-4.478 9.437,-5.867 14.754,-5.215c3.089,0.38 6.31,1.335 8.25,3.912c1.063,1.412 1.568,3.353 1.964,5.052c0.411,1.793 1.28,3.027 2.701,4.222c2.173,1.832 4.602,3.407 6.892,5.083c0.792,0.582 1.599,1.18 2.212,1.948c0.613,0.777 1.016,1.762 0.877,2.74z"/>
       <g stroke="null" id="svg_329">
        <path stroke="null" id="svg_330" fill="#BE3868" d="m3122.935878,2457.595243c-12.385,1.113 -24.792,-4.243 -32.505,-13.992c-0.651,-0.822 -2.064,-0.68 -2.744,0c-0.812,0.812 -0.653,1.919 0,2.744c6.395,8.084 16.082,13.465 26.272,14.874c2.983,0.413 5.975,0.524 8.977,0.254c1.044,-0.094 1.94,-0.825 1.94,-1.94c0.001,-0.977 -0.89,-2.034 -1.94,-1.94z"/>
       </g>
       <path stroke="null" id="svg_331" fill="#F2D0C3" d="m3123.225878,2464.754243c0.078,0.466 0.202,0.931 0.14,1.405c-0.023,0.21 -0.093,0.419 -0.202,0.605c-0.132,0.21 -0.427,0.287 -0.536,0.458c-0.116,0.178 -0.093,0.574 -0.124,0.784c-0.046,0.334 -0.093,0.667 -0.147,1.001c-0.202,1.273 -0.45,2.546 -0.745,3.811c-0.582,2.522 -1.327,5.014 -2.22,7.451c-0.272,0.753 -0.559,1.505 -0.861,2.251c-1.583,3.919 -3.578,7.784 -6.674,10.671c-2.126,1.987 -4.695,3.43 -7.086,5.091c0,0 -0.008,0 -0.008,0.008c-0.186,-0.085 -0.38,-0.163 -0.574,-0.241c-1.995,-0.776 -4.191,-1.149 -6.263,-1.676c0.73,-1.257 -0.241,-3.12 -1.684,-3.244c-0.442,-0.039 -0.993,0.008 -1.211,-0.372c-0.194,-0.341 0.031,-0.753 0.272,-1.056c1.164,-1.467 2.864,-2.499 4.711,-2.84c1.149,-0.217 2.484,-0.248 3.221,-1.156c0.706,-0.869 0.52,-2.134 0.815,-3.205c0.357,-1.327 1.443,-2.336 2.623,-3.035c1.18,-0.698 2.484,-1.156 3.687,-1.824c2.383,-1.319 4.292,-3.477 5.316,-6.007c0.629,-1.568 0.924,-3.244 1.436,-4.858c1.537,-4.882 5.052,-9.173 5.433,-14.272c0.171,1.125 0.287,2.259 0.365,3.399c0.085,1.273 0.155,2.631 0.652,3.834c0.093,0.233 0.21,0.466 0.186,0.722c-0.031,0.334 -0.295,0.605 -0.442,0.908c-0.196,0.425 -0.158,0.922 -0.08,1.387z"/>
       <path stroke="null" id="svg_332" fill="#C18E7B" d="m3103.904878,2425.326243c-2.249,-0.476 -4.84,-0.323 -6.725,1.525c-1.604,1.572 -2.354,4.012 -3.356,6.169c-1.695,3.648 -4.314,6.74 -7.378,8.709c-0.932,0.599 -2.002,1.219 -2.39,2.389c-0.428,1.289 0.207,2.641 1.042,3.445c1.018,0.98 2.363,1.478 3.73,1.383c1.376,-0.096 2.735,-0.766 4.112,-0.871c2.171,-0.165 4.261,1.083 6.406,0.431c1.745,-0.53 3.181,-2.257 4.081,-4.175c0.901,-1.918 1.357,-4.043 1.868,-6.122c0.511,-2.08 1.108,-4.194 2.228,-5.953c0.615,-0.965 3.564,-4.045 2.391,-5.261c-0.292,-0.302 -0.86,-0.269 -1.231,-0.352c-0.566,-0.126 -1.124,-0.287 -1.68,-0.453c-1.026,-0.305 -2.047,-0.642 -3.098,-0.864z"/>
       <path stroke="null" id="svg_333" fill="#C18E7B" d="m3123.063878,2433.775243c-1.013,-0.646 -2.434,-0.616 -3.397,0.113c-0.967,0.732 -1.416,1.986 -1.132,3.167c0.078,0.326 0.466,0.551 0.788,0.447c0.339,-0.11 0.531,-0.439 0.447,-0.788c-0.012,-0.05 -0.021,-0.101 -0.033,-0.151c-0.003,-0.012 -0.003,-0.009 -0.005,-0.016c0,-0.007 0.001,-0.003 0.001,-0.017c-0.004,-0.112 -0.01,-0.221 -0.004,-0.333c0.001,-0.01 0.006,-0.062 0.009,-0.095c0.006,-0.033 0.014,-0.082 0.016,-0.091c0.021,-0.101 0.049,-0.2 0.082,-0.298c0.004,-0.011 0.027,-0.07 0.038,-0.097c0.017,-0.035 0.046,-0.095 0.051,-0.104c0.048,-0.091 0.105,-0.176 0.161,-0.263c0.009,-0.014 0.007,-0.013 0.01,-0.018c0.006,-0.005 0.005,-0.004 0.015,-0.015c0.035,-0.038 0.067,-0.077 0.103,-0.115c0.036,-0.037 0.072,-0.073 0.111,-0.107c0.012,-0.01 0.044,-0.036 0.063,-0.053c0.077,-0.055 0.155,-0.107 0.238,-0.152c0.048,-0.026 0.097,-0.048 0.146,-0.072c-0.129,0.062 0.029,-0.008 0.049,-0.015c0.103,-0.035 0.208,-0.063 0.315,-0.084c0.029,-0.006 0.069,-0.011 0.087,-0.013c0.04,-0.004 0.081,-0.007 0.121,-0.009c0.11,-0.004 0.217,0.003 0.326,0.008c0.018,0.001 0.016,0 0.024,0c0.007,0.002 0.004,0.003 0.021,0.006c0.053,0.012 0.107,0.021 0.159,0.034c0.062,0.015 0.122,0.033 0.182,0.054c0.013,0.004 0.085,0.034 0.109,0.042c0.031,0.016 0.078,0.039 0.087,0.044c0.056,0.03 0.11,0.063 0.164,0.097c0.283,0.181 0.719,0.068 0.876,-0.23c0.169,-0.317 0.074,-0.683 -0.228,-0.876z"/>
       <path stroke="null" id="svg_334" fill="#C18E7B" d="m3132.329878,2451.010243c-0.318,0.45 -0.644,0.885 -1.017,1.273c-3.562,-0.047 -7.241,-0.512 -9.988,-2.996c-0.605,-0.551 0.303,-1.459 0.908,-0.908c2.731,2.475 6.596,2.654 10.097,2.631z"/>
       <path stroke="null" id="svg_335" fill="#C18E7B" d="m3132.321878,2441.183243c-0.279,0.036 -0.567,0.061 -0.818,0.187c-0.255,0.129 -0.451,0.354 -0.595,0.601c-0.294,0.503 -0.395,1.116 -0.276,1.687c0.168,0.809 0.756,1.485 1.458,1.921c0.702,0.435 1.515,0.657 2.324,0.824c0.614,0.127 1.269,0.223 1.856,0.003c0.468,-0.175 0.851,-0.543 1.097,-0.978c0.245,-0.436 0.361,-0.936 0.39,-1.435c0.053,-0.903 -0.183,-1.84 -0.749,-2.546c-0.41,-0.511 -0.999,-0.885 -1.643,-1.016c-0.283,-0.057 -0.542,-0.084 -0.787,0.082c-0.289,0.196 -0.631,0.297 -0.964,0.396c-0.423,0.125 -0.856,0.217 -1.293,0.274z"/>
       <path stroke="null" id="svg_336" fill="#C18E7B" d="m3055.264878,2472.376243c-0.747,-1.738 -1.755,-3.346 -3.007,-4.764c-0.331,-0.375 -0.878,0.175 -0.549,0.549c4.682,5.304 5.239,12.836 3.935,19.503c-0.41,2.098 -0.987,4.158 -1.648,6.189c-0.155,0.476 0.594,0.68 0.748,0.206c2.27,-6.976 3.516,-14.721 0.521,-21.683z"/>
      </g>
     </g>
     <path stroke="null" id="svg_337" fill="#EDBB95" d="m3056.574878,2512.052243c0,0 -3.587,4.769 -1.712,12.717l39.208,0c0,0 0.978,-5.829 -5.298,-6.889c-6.277,-1.06 -17.314,-7.57 -17.314,-7.57l-14.884,1.742z"/>
     <path stroke="null" id="svg_338" fill="#677F74" d="m2929.560878,2470.642243c0,0 -12.623,52.916 26.97,53.991c50.656,1.375 70.617,-44.63 70.617,-44.63l24.13,36.055c0,0 14.862,0.799 24.637,-7.299c0,0 -20.52,-66.311 -45.003,-67.76c-23.308,-1.379 -59.754,31.332 -59.754,31.332c-14.003,4.559 -41.597,-1.689 -41.597,-1.689z"/>
     <g stroke="null" id="svg_339">
      <path stroke="null" id="svg_340" fill="#788E84" d="m3027.471878,2477.587243c-1.766,-1.249 -2.885,-3.326 -2.973,-5.484c-0.02,-0.498 -0.797,-0.5 -0.776,0c0.1,2.449 1.358,4.741 3.357,6.155c0.409,0.288 0.797,-0.385 0.392,-0.671z"/>
      <path stroke="null" id="svg_341" fill="#788E84" d="m3026.057878,2478.684243c-1.646,-0.139 -3.196,-1.073 -4.099,-2.454c-0.272,-0.416 -0.945,-0.028 -0.67,0.392c1.063,1.625 2.837,2.675 4.77,2.838c0.497,0.042 0.494,-0.734 -0.001,-0.776z"/>
     </g>
    </g>
   </g>
  </g>
 </g>
</svg>