<svg width="640" height="480" xmlns="http://www.w3.org/2000/svg" xmlns:xlink="http://www.w3.org/1999/xlink">
 <!-- Created with Method Draw - http://github.com/duopixel/Method-Draw/ -->

 <g>
  <title transform="translate(-26,-14) translate(42,10) translate(8,0) translate(-40,3) ">Layer 1</title>
  <g stroke="null" id="svg_81">
   <g stroke="null" transform="matrix(0.9130911432886851,0,0,0.8730380999819726,5.578035029899213,-4.98314698493499) " id="svg_16"/>
   <g transform="matrix(2.716672312693682,0,0,2.318061595694431,12.794717965584798,61.66002403766575) " stroke="null" id="svg_26">
    <circle stroke-width="0" stroke="null" id="svg_27" fill="#9FC9C9" r="77.989998" cy="63.964758" cx="110.791792"/>
    <g stroke="null" id="svg_28">
     <path stroke-width="0" stroke="null" id="svg_29" fill="#FFFFFF" d="m110.791792,57.238758c0.497,-1.207 0.923,-2.247 1.353,-3.284c1.474,-3.553 3.498,-6.728 6.415,-9.283c1.908,-1.671 4.141,-2.583 6.643,-2.957c3.613,-0.539 6.998,0.367 10.318,1.578c4.937,1.801 8.932,4.968 12.357,8.886c2.125,2.431 3.721,5.211 4.876,8.207c0.895,2.32 1.181,4.742 0.706,7.253c-0.271,1.434 -0.407,2.889 -0.827,4.301c-1.008,3.384 -2.807,6.309 -5.116,8.94c-2.123,2.421 -4.652,4.373 -7.28,6.203c-3.387,2.358 -6.783,4.703 -10.171,7.06c-2.587,1.8 -4.784,4.033 -6.91,6.334c-0.629,0.68 -1.179,1.448 -1.677,2.231c-2.219,3.491 -4.163,7.127 -5.696,10.976c-0.32,0.803 -0.647,1.608 -1.041,2.376c-0.823,1.604 -1.531,3.251 -2.086,4.966c-0.122,0.378 -0.237,0.771 -0.434,1.111c-0.86,1.477 -2.228,1.442 -3.059,-0.074c-0.158,-0.288 -0.235,-0.62 -0.347,-0.933c-0.65,-1.819 -1.402,-3.593 -2.246,-5.333c-0.754,-1.555 -1.388,-3.169 -2.073,-4.758c-1.376,-3.191 -3.092,-6.197 -5.079,-9.039c-1.806,-2.584 -4.097,-4.724 -6.548,-6.686c-3.487,-2.791 -7.261,-5.177 -10.932,-7.709c-2.688,-1.853 -5.319,-3.775 -7.544,-6.202c-2.983,-3.254 -5.177,-6.922 -6.046,-11.294c-0.31,-1.562 -0.575,-3.131 -0.599,-4.741c-0.027,-1.836 0.336,-3.583 1.027,-5.252c2.611,-6.302 6.925,-11.147 12.731,-14.687c2.872,-1.751 5.983,-2.902 9.276,-3.528c3.631,-0.69 7.148,-0.42 10.394,1.551c2.028,1.232 3.613,2.933 4.981,4.837c1.523,2.119 2.706,4.425 3.581,6.888c0.238,0.668 0.489,1.339 1.053,2.062z"/>
     <path stroke-width="0" stroke="null" id="svg_30" fill="#FFFFFF" d="m133.703792,17.715758c0.1,3.297 -0.464,6.497 -1.631,9.571c-0.911,2.398 -2.304,4.481 -4.378,6.069c-0.817,0.625 -1.74,0.973 -2.707,1.227c-0.723,0.19 -1.448,0.13 -2.154,-0.153c-1.449,-0.581 -2.689,-1.407 -3.622,-2.705c-1.433,-1.993 -2.19,-4.238 -2.66,-6.61c-0.657,-3.316 -0.578,-6.604 0.286,-9.88c0.339,-1.283 0.553,-2.599 0.875,-3.887c0.606,-2.422 2.042,-4.307 3.948,-5.851c0.948,-0.768 2.097,-1.146 3.267,-1.431c0.523,-0.128 1.047,-0.048 1.577,0.087c1.818,0.462 3.269,1.441 4.357,2.969c1.707,2.397 2.5,5.123 2.826,8c0.098,0.854 0.016,1.729 0.016,2.594zm-45.56,5.308c0.659,3.243 1.742,6.269 3.943,8.819c0.752,0.871 1.635,1.558 2.621,2.115c1.794,1.015 3.56,0.852 5.292,-0.195c1.351,-0.816 2.345,-1.961 3.048,-3.35c2.011,-3.976 2.682,-8.182 2.003,-12.582c-0.283,-1.836 -0.652,-3.661 -1.051,-5.476c-0.574,-2.609 -1.822,-4.843 -3.881,-6.587c-2.404,-2.035 -5.2,-2.224 -7.698,-0.513c-0.664,0.455 -1.232,1.024 -1.705,1.67c-0.75,1.022 -1.366,2.117 -1.809,3.317c-0.887,2.401 -1.384,4.857 -1.228,6.993c0.01,2.231 0.105,4.013 0.465,5.789zm69.343,0.903c-0.674,-2.457 -2.125,-4.15 -4.441,-5.324c-2.008,-1.017 -4.659,-0.876 -6.627,1.027c-1.244,1.202 -2.319,2.611 -2.934,4.246c-1.425,3.786 -2.206,7.668 -1.313,11.726c0.492,2.24 1.215,4.353 2.964,5.98c1.816,1.69 4.073,2.018 6.237,0.799c1.656,-0.933 3,-2.23 3.973,-3.854c1.815,-3.03 2.779,-6.318 2.767,-10.341c0.073,-1.144 -0.2,-2.708 -0.626,-4.259zm-91.5,14.442c1.014,1.687 2.371,3.045 4.081,4.014c2.087,1.183 4.313,0.912 6.094,-0.677c0.907,-0.809 1.608,-1.764 2.08,-2.892c0.937,-2.237 1.446,-4.578 1.369,-6.989c-0.073,-2.257 -0.41,-4.502 -1.177,-6.647c-0.819,-2.292 -2.075,-4.301 -3.936,-5.916c-1.363,-1.182 -2.98,-1.665 -4.642,-1.189c-2.586,0.74 -4.701,2.205 -5.613,4.93c-0.594,1.775 -1.026,3.581 -0.898,5.318c-0.158,3.577 1.081,7.45 2.642,10.048z"/>
    </g>
    <path stroke-width="0" stroke="null" id="svg_31" fill="#FFFFFF" d="m67.303792,114.357758c-0.161,-0.107 -0.322,-0.213 -0.484,-0.318c0.054,-0.055 0.111,-0.11 0.168,-0.166c0.199,0.081 0.345,0.207 0.36,0.439l-0.044,0.045z"/>
    <path stroke-width="0" stroke="null" id="svg_32" fill="#FFFFFF" d="m67.347792,114.312758c0.09,0.055 0.18,0.109 0.27,0.164c-0.215,0.25 -0.248,0.023 -0.314,-0.119c0,0 0.044,-0.045 0.044,-0.045z"/>
    <path stroke-width="0" stroke="null" id="svg_33" fill="#FFFFFF" d="m155.414792,113.640758c-0.199,0.26 -0.47,0.381 -0.792,0.399c-0.058,-0.059 -0.116,-0.116 -0.174,-0.172c0.147,-0.302 0.427,-0.421 0.718,-0.523c0.08,0.1 0.163,0.199 0.248,0.296z"/>
    <path stroke-width="0" stroke="null" id="svg_34" fill="#FFFFFF" d="m154.138792,114.351758c-0.057,0.191 -0.184,0.313 -0.382,0.309c-0.052,-0.001 -0.101,-0.129 -0.151,-0.198c0.165,-0.05 0.33,-0.099 0.495,-0.149l0.038,0.038z"/>
    <path stroke-width="0" stroke="null" id="svg_35" fill="#FFFFFF" d="m154.099792,114.313758c0.011,-0.232 0.154,-0.359 0.349,-0.445c0.058,0.056 0.116,0.113 0.174,0.171c-0.161,0.105 -0.323,0.208 -0.485,0.312c0.001,0 -0.038,-0.038 -0.038,-0.038z"/>
    <g stroke="null" id="svg_36">
     <g stroke="null" id="svg_37">
      <path stroke-width="0" stroke="null" id="svg_38" fill="#FF9898" d="m155.414792,113.640758c1.184,-0.322 2.11,-1.127 3.141,-1.723c2.362,-1.367 4.688,-2.801 6.986,-4.274c3.209,-2.056 5.664,-4.804 7.422,-8.198c2.452,-4.734 4.831,-9.5 6.898,-14.418c0.723,-1.719 1.513,-3.409 2.296,-5.102c1.006,-2.176 1.983,-4.369 3.073,-6.503c0.755,-1.479 1.634,-2.901 2.54,-4.295c0.77,-1.184 1.763,-2.173 3.089,-2.76c1.401,-0.62 2.663,-0.237 3.416,1.067c0.607,1.052 1.023,2.188 1.023,3.41c-0.001,3.933 0.079,7.872 -0.125,11.795c-0.107,2.058 -0.145,4.124 -0.313,6.179c-0.243,2.982 -0.245,5.979 -0.661,8.952c-0.257,1.842 -0.331,3.709 -0.53,5.561c-0.191,1.784 -0.452,3.56 -0.651,5.343c-0.184,1.652 -0.36,3.307 -0.48,4.964c-0.145,1.998 -0.454,3.982 -0.964,5.9c-0.892,3.355 -2.61,6.261 -5.397,8.438c-3.254,2.542 -6.492,5.103 -9.96,7.358c-2.239,1.456 -4.612,2.668 -6.943,3.954c-4.14,2.285 -8.33,4.481 -12.494,6.721c-0.997,0.536 -1.965,1.128 -2.971,1.646c-0.712,0.367 -1.095,0.927 -1.277,1.682c-0.654,2.715 -1.329,5.425 -1.98,8.141c-0.31,1.293 -0.568,2.599 -0.882,3.891c-0.173,0.711 -0.414,1.4 -0.425,2.148c-0.013,0.936 -0.472,1.645 -1.227,2.174c-3.348,2.347 -7.012,3.728 -11.146,3.873c-4.297,0.151 -8.483,-0.357 -12.633,-1.487c-2.661,-0.724 -5.152,-1.777 -7.567,-3.067c-0.957,-0.511 -1.711,-1.253 -2.497,-1.977c-0.771,-0.71 -0.995,-1.525 -0.793,-2.525c0.315,-1.564 0.618,-3.131 0.892,-4.703c0.64,-3.667 1.259,-7.337 1.887,-11.005c1.167,-6.815 2.308,-13.636 3.973,-20.353c0.399,-1.611 0.819,-3.216 1.492,-4.754c0.914,-2.089 2.372,-3.677 4.182,-4.989c2.384,-1.727 4.972,-3.098 7.627,-4.35c4.578,-2.159 9.207,-4.196 13.927,-6.028c3.368,-1.308 6.852,-2.129 10.41,-2.681c0.831,-0.129 1.588,0.095 2.315,0.454c0.708,0.349 1.126,0.939 1.23,1.714c0.145,1.078 0.076,2.131 -0.536,3.084c-0.541,0.842 -1.108,1.663 -1.825,2.371c-0.949,0.937 -1.891,1.88 -2.826,2.831c-0.37,0.376 -0.818,0.697 -0.965,1.248c-0.292,0.102 -0.571,0.221 -0.718,0.523c-0.196,0.086 -0.339,0.213 -0.349,0.445c-0.165,0.05 -0.33,0.099 -0.495,0.149c0.05,0.07 0.1,0.198 0.151,0.198c0.198,0.004 0.325,-0.118 0.382,-0.309c0.162,-0.104 0.324,-0.207 0.486,-0.311c0.323,-0.021 0.593,-0.142 0.792,-0.402z"/>
      <g stroke="null" id="svg_39">
       <path stroke-width="0" stroke="null" id="svg_40" fill="#D45D5D" d="m195.282792,79.384758c0.054,-2.845 0.015,-5.695 0.016,-8.542c0,-0.972 -0.269,-1.887 -0.682,-2.751l-4.971,41.632c-0.065,0.548 0.326,1.046 0.875,1.111c0.04,0.005 0.08,0.007 0.119,0.007c0.5,0 0.932,-0.373 0.992,-0.882l3.651,-30.575z"/>
       <path stroke-width="0" stroke="null" id="svg_41" fill="#D45D5D" d="m191.835792,66.096758c-1.698,9.627 -5.672,31.704 -8.005,44.627c-0.098,0.544 0.264,1.064 0.807,1.162c0.061,0.011 0.12,0.016 0.179,0.016c0.475,0 0.896,-0.339 0.983,-0.822c2.975,-16.485 6.37,-35.352 7.947,-44.322c-0.526,-0.512 -1.181,-0.742 -1.911,-0.661z"/>
       <path stroke-width="0" stroke="null" id="svg_42" fill="#D45D5D" d="m153.756792,114.660758c-0.544,-0.464 -1.249,-0.376 -1.786,-0.211l-13.996,10.655c-0.439,0.335 -0.524,0.962 -0.19,1.401c0.197,0.259 0.495,0.395 0.797,0.395c0.211,0 0.424,-0.066 0.604,-0.204l14.943,-11.376c-0.06,-0.251 -0.166,-0.483 -0.372,-0.66z"/>
      </g>
     </g>
     <g stroke="null" id="svg_43">
      <path stroke-width="0" stroke="null" id="svg_44" fill="#FF9898" d="m66.988792,113.873758c-1.443,-1.473 -2.874,-2.957 -4.332,-4.414c-0.76,-0.76 -1.401,-1.604 -1.972,-2.506c-0.399,-0.631 -0.603,-1.319 -0.626,-2.076c-0.067,-2.177 1.339,-3.544 3.529,-3.218c1.769,0.264 3.537,0.559 5.28,1.013c3.102,0.809 6.059,1.999 9.025,3.182c3.836,1.53 7.552,3.324 11.28,5.091c2.044,0.969 4.003,2.104 5.898,3.353c2.665,1.757 4.464,4.117 5.402,7.183c1.033,3.378 1.729,6.829 2.429,10.282c1.267,6.253 2.265,12.552 3.282,18.849c0.519,3.212 1.168,6.405 1.819,9.594c0.251,1.231 0.022,2.19 -0.944,3.04c-0.803,0.708 -1.611,1.374 -2.549,1.905c-3.821,2.163 -7.984,3.227 -12.262,4.009c-2.783,0.509 -5.572,0.462 -8.361,0.348c-3.903,-0.16 -7.379,-1.584 -10.528,-3.856c-0.563,-0.406 -1.065,-0.929 -1.086,-1.608c-0.046,-1.562 -0.642,-2.988 -0.98,-4.473c-0.751,-3.304 -1.304,-6.652 -2.298,-9.905c-0.318,-1.042 -0.806,-1.706 -1.771,-2.223c-6.514,-3.488 -13.015,-7.002 -19.486,-10.57c-3.153,-1.739 -6.059,-3.869 -8.889,-6.087c-1.57,-1.23 -3.167,-2.427 -4.653,-3.77c-2.267,-2.048 -3.52,-4.667 -4.348,-7.504c-0.52,-1.78 -0.751,-3.639 -0.936,-5.497c-0.328,-3.305 -0.735,-6.602 -1.094,-9.904c-0.18,-1.652 -0.31,-3.309 -0.491,-4.961c-0.52,-4.765 -0.601,-9.557 -0.915,-14.333c-0.289,-4.395 -0.264,-8.781 -0.306,-13.173c-0.009,-0.94 0.143,-1.847 0.377,-2.758c0.172,-0.669 0.482,-1.242 0.873,-1.777c0.769,-1.049 1.763,-1.301 2.989,-0.834c1.434,0.546 2.452,1.592 3.297,2.806c0.989,1.42 1.908,2.893 2.644,4.464c1.355,2.893 2.725,5.78 4.006,8.706c2.511,5.736 5.182,11.391 8.04,16.964c1.979,3.859 4.852,6.807 8.488,9.061c2.885,1.788 5.811,3.51 8.712,5.273c0.405,0.246 0.804,0.47 1.289,0.489c0.162,0.105 0.323,0.212 0.484,0.318c0.066,0.142 0.099,0.369 0.314,0.119c-0.09,-0.055 -0.18,-0.109 -0.27,-0.164c-0.016,-0.231 -0.161,-0.357 -0.36,-0.438z"/>
      <g stroke="null" id="svg_45">
       <path stroke-width="0" stroke="null" id="svg_46" fill="#D45D5D" d="m26.298792,79.384758c-0.054,-2.845 -0.015,-5.695 -0.016,-8.542c0,-0.972 0.269,-1.887 0.682,-2.751l4.971,41.632c0.065,0.548 -0.326,1.046 -0.875,1.111c-0.04,0.005 -0.08,0.007 -0.119,0.007c-0.5,0 -0.932,-0.373 -0.992,-0.882l-3.651,-30.575z"/>
       <path stroke-width="0" stroke="null" id="svg_47" fill="#D45D5D" d="m29.746792,66.096758c1.698,9.627 5.672,31.704 8.005,44.627c0.098,0.544 -0.264,1.064 -0.807,1.162c-0.06,0.011 -0.12,0.016 -0.179,0.016c-0.475,0 -0.895,-0.339 -0.983,-0.822c-2.975,-16.485 -6.37,-35.352 -7.947,-44.322c0.526,-0.512 1.181,-0.742 1.911,-0.661z"/>
       <path stroke-width="0" stroke="null" id="svg_48" fill="#D45D5D" d="m67.825792,114.660758c0.544,-0.464 1.249,-0.376 1.786,-0.211l13.996,10.655c0.439,0.335 0.524,0.962 0.19,1.401c-0.197,0.259 -0.495,0.395 -0.797,0.395c-0.211,0 -0.424,-0.066 -0.604,-0.204l-14.943,-11.376c0.059,-0.251 0.166,-0.483 0.372,-0.66z"/>
      </g>
     </g>
    </g>
    <path stroke-width="0" stroke="null" fill="none" d="m194.393792,63.051758c0,46.213 -37.463,83.676 -83.676,83.676c-46.213,0 -83.676,-37.463 -83.676,-83.676c0,-46.213 37.463,-83.676 83.676,-83.676c46.212,0 83.676,37.463 83.676,83.676z" id="svg_14"/>
    <text stroke-width="0" stroke="null" x="-250.478208" y="-291.817242" id="svg_49">
     <textPath stroke-width="0" stroke="null" startOffset="166.154%" xlink:href="#svg_14">
      <tspan stroke-width="0" stroke="null" id="svg_50" fill="#237575">CRUELTY FREE</tspan>
     </textPath>
    </text>
   </g>
  </g>
 </g>
</svg>