<svg width="1024" height="768" xmlns="http://www.w3.org/2000/svg">
 <!-- Created with Method Draw - http://github.com/duopixel/Method-Draw/ -->

 <g>
  <title>background</title>
  <rect fill="#fff" id="canvas_background" height="770" width="1026" y="-1" x="-1"/>
 </g>
 <g>
  <title>Layer 1</title>
  <ellipse stroke="#fbe3fd" ry="210.499989" rx="210" id="svg_1" cy="349.50003" cx="532" stroke-width="1.5" fill="#fbe3fd"/>
  <g stroke="null" id="svg_18">
   <g id="svg_5" text-anchor="none" font-size="none" font-weight="none" font-family="none" stroke-dashoffset="0" stroke-miterlimit="10" fill-rule="nonzero" fill="#a858f9">
    <g stroke="null" id="svg_6" transform="translate(-3.7085700035095215,-2.2446300983428955) scale(0.3932400047779083) ">
     <g stroke="null" id="svg_7" transform="translate(0,590) scale(0.10000000149011612,-0.10000000149011612) ">
      <path stroke="null" id="svg_8" d="m13877.165548,1577.319028c-159.688542,-39.222853 -384.626165,-140.548556 -523.709734,-233.702831c-240.391353,-163.428553 -473.914382,-447.794236 -587.241734,-712.548492c-142.517731,-336.66282 -178.576434,-794.262769 -89.288217,-1126.022732c108.176109,-402.034241 420.684868,-689.668495 777.837736,-715.817063c492.802274,-35.954282 786.423141,297.439967 1136.707684,1289.451286c132.215244,375.885673 168.273947,549.119939 169.991028,805.702768c0,191.211407 -5.151243,227.165689 -49.795352,359.542817c-44.644108,125.839986 -63.532,158.525697 -137.366488,228.799975c-61.814919,58.834279 -115.044433,91.51999 -180.293515,111.131416c-123.629839,37.588567 -350.284543,35.954282 -516.841409,-6.537142z"/>
      <path stroke="null" id="svg_9" d="m16315.420701,956.290526c-130.498163,-49.028566 -326.245408,-238.605688 -424.11903,-411.839954c-352.001624,-624.297074 -576.939248,-1547.6684 -477.348544,-1954.605498c94.43946,-375.885673 453.309409,-609.588504 827.633087,-534.411369c276.450056,53.931423 614.715032,287.634254 807.028114,557.291367c206.049731,289.268539 295.337948,550.754225 309.074597,908.662756c12.019568,282.731397 -17.170811,472.308519 -108.176109,732.159919c-120.195677,344.834247 -305.640435,594.879934 -513.407247,689.668495c-120.195677,53.931423 -293.620867,60.468565 -420.684868,13.074284z"/>
      <path stroke="null" id="svg_10" d="m11499.008232,635.970561c-161.405623,-62.10285 -400.079895,-254.948543 -669.661627,-540.948511c-460.177733,-487.017089 -594.110059,-751.771345 -594.110059,-1163.6113c0,-482.114232 147.668974,-807.337053 415.533625,-923.371326c96.156541,-40.857138 120.195677,-44.125709 264.430489,-37.588567c140.80065,4.902857 173.425191,13.074284 285.035462,65.371421c133.932325,63.737136 310.791678,215.72569 388.060327,333.394249c285.035462,437.988523 427.553192,1021.428458 382.909084,1570.548397c-30.90746,367.714245 -66.966163,531.142798 -140.80065,630.834216c-68.683244,91.51999 -195.747245,117.668558 -331.396651,65.371421z"/>
      <path stroke="null" id="svg_11" d="m13574.959275,-1565.412052c-381.192003,-86.617133 -697.134924,-241.874259 -1129.83936,-555.657081c-300.489192,-217.359976 -506.538923,-310.514251 -875.711358,-402.034241c-281.601299,-68.639992 -515.124328,-86.617133 -949.545845,-76.81142c-358.869949,8.171428 -570.070923,27.782854 -937.526278,86.617133c-91.005298,16.342855 -171.708109,24.514283 -176.859353,19.611426c-5.151243,-4.902857 -34.341622,-80.079991 -66.966163,-166.697124c-276.450056,-732.159919 -285.035462,-1577.085539 -24.039135,-2320.685457c151.103136,-429.817095 212.918056,-472.308519 539.163464,-377.519958c233.523029,67.005707 415.533625,199.382835 455.02649,331.759963c27.473298,88.251419 85.854055,578.537079 85.854055,719.085635c0,67.005707 6.868324,117.668558 17.170811,117.668558c10.302487,0 17.170811,-19.611426 17.170811,-44.125709c0,-76.81142 65.249082,-349.737104 104.741947,-444.525665c46.36119,-111.131416 125.34692,-223.897118 171.708109,-246.777115c82.419893,-42.491424 444.724003,197.74855 566.636761,377.519958c85.854055,125.839986 130.498163,250.045687 163.122704,455.965664c27.473298,179.771409 27.473298,506.628515 0,581.80565c-12.019568,32.685711 -3.434162,35.954282 166.556866,62.10285c271.298813,39.222853 588.958815,49.028566 861.974709,26.148569c132.215244,-9.805713 254.128002,-26.148569 273.015894,-35.954282c18.887892,-9.805713 87.571136,-58.834279 154.537298,-111.131416c273.015894,-212.457119 461.894814,-256.582829 903.184656,-217.359976c355.435787,31.051425 360.58703,29.41714 386.343246,-57.199994c30.90746,-99.691418 99.590703,-176.502838 209.483894,-235.337117c51.512433,-27.782854 101.307785,-67.005707 111.610271,-86.617133c22.322054,-47.39428 -5.151243,-142.182841 -70.400325,-240.239973c-75.551568,-114.399987 -195.747245,-165.062839 -503.104761,-217.359976c-135.649406,-22.879997 -295.337948,-52.297137 -357.152868,-65.371421c-108.176109,-22.879997 -104.741947,-22.879997 206.049731,-16.342855c183.727677,3.268571 379.474922,16.342855 463.611895,31.051425c80.702811,14.70857 147.668974,26.148569 151.103136,26.148569c18.887892,0 -6.868324,-73.542849 -48.078271,-135.645699c-68.683244,-102.959989 -200.898488,-181.405694 -393.211571,-232.068546c-85.854055,-22.879997 -228.371786,-58.834279 -314.22584,-81.714277c-369.172435,-96.422846 -700.569086,-297.439967 -927.223791,-563.828509c-209.483894,-246.777115 -374.323679,-740.331346 -377.757841,-1134.19416c-3.434162,-268.022827 46.36119,-424.914239 169.991028,-536.045655c97.873622,-89.885704 159.688542,-102.959989 443.006922,-99.691418c1332.454929,19.611426 2530.977533,691.30278 3209.224565,1800.982657l63.532,102.959989l-125.34692,125.839986c-190.596001,189.577122 -331.396651,405.302812 -405.231138,622.662788c-61.814919,176.502838 -70.400325,292.53711 -44.644108,588.342792c72.117406,835.119907 66.966163,1246.959862 -18.887892,1519.885546c-178.576434,570.365651 -561.485518,882.514188 -1339.323254,1090.068451c-233.523029,62.10285 -571.788004,68.639992 -808.745195,14.70857z"/>
      <path stroke="null" id="svg_12" d="m17477.884602,-2302.474827c-91.005298,-29.41714 -183.727677,-93.154275 -290.186705,-201.017121c-111.610271,-111.131416 -190.596001,-220.628547 -357.152868,-493.554231c-326.245408,-536.045655 -482.499788,-928.274183 -485.93395,-1217.542722c0,-214.091405 144.234812,-547.485654 297.055029,-679.862782c182.010596,-158.525697 370.889516,-151.988555 710.871573,24.514283c319.377084,166.697124 503.104761,307.24568 609.563788,464.137091c154.537298,232.068546 195.747245,660.251355 106.459028,1140.731302c-42.927027,233.702831 -130.498163,558.925652 -183.727677,683.131353c-101.307785,236.971402 -242.108434,333.394249 -406.948219,279.462826z"/>
      <path stroke="null" id="svg_13" d="m12606.525538,-3871.388939l-163.122704,-156.891411l77.268649,26.148569c53.229514,17.977141 103.024866,22.879997 161.405623,14.70857c46.36119,-4.902857 163.122704,-4.902857 260.996326,1.634286l178.576434,11.439999l-65.249082,88.251419c-82.419893,109.497131 -164.839785,169.965695 -235.24011,169.965695c-42.927027,0 -78.98573,-26.148569 -214.635137,-155.257126z"/>
      <path stroke="null" id="svg_14" d="m14409.460687,-4230.931756c0,-13.074284 8.585405,-24.514283 17.170811,-24.514283c10.302487,0 17.170811,11.439999 17.170811,24.514283c0,13.074284 -6.868324,24.514283 -17.170811,24.514283c-8.585405,0 -17.170811,-11.439999 -17.170811,-24.514283z"/>
      <path stroke="null" id="svg_15" d="m14186.240145,-4328.988888c0,-14.70857 8.585405,-24.514283 18.887892,-21.245712c10.302487,3.268571 18.887892,13.074284 18.887892,21.245712c0,8.171428 -8.585405,17.977141 -18.887892,21.245712c-10.302487,3.268571 -18.887892,-6.537142 -18.887892,-21.245712z"/>
      <path stroke="null" id="svg_16" d="m14340.777443,-4394.36031c0,-13.074284 8.585405,-24.514283 17.170811,-24.514283c10.302487,0 17.170811,11.439999 17.170811,24.514283c0,13.074284 -6.868324,24.514283 -17.170811,24.514283c-8.585405,0 -17.170811,-11.439999 -17.170811,-24.514283z"/>
      <path stroke="null" id="svg_17" d="m10640.467685,-5879.925859c-182.010596,-55.565708 -321.094165,-155.257126 -345.1333,-248.411401c-56.663676,-214.091405 252.410921,-544.217083 712.588654,-766.479915c106.459028,-50.662852 133.932325,-57.199994 168.273947,-42.491424c116.761514,50.662852 91.005298,250.045687 -56.663676,429.817095c-99.590703,120.937129 -120.195677,173.234267 -135.649406,331.759963c-25.756216,274.55997 -127.064001,361.177103 -343.416219,295.805681z"/>
     </g>
    </g>
   </g>
  </g>
 </g>
</svg>